<svg width="26" height="30" viewBox="0 0 26 30" fill="none" xmlns="http://www.w3.org/2000/svg">
<path d="M25.4217 7.10264C25.4018 6.47264 25.1846 5.90066 24.8132 5.39334C24.16 4.50304 23.2515 4.12172 22.1722 4.05375C19.5693 3.88796 17.1835 3.11371 15.1194 1.47404C14.6768 1.12257 14.2756 0.71804 13.8213 0.383143C13.2344 -0.0512286 12.5646 -0.129152 11.918 0.215693C11.5301 0.422931 11.1952 0.73959 10.8586 1.03304C10.1126 1.6846 9.30682 2.24497 8.42647 2.69758C6.79675 3.53648 5.05264 3.96256 3.23226 4.05375C1.27924 4.15156 -0.0238774 5.63042 0.000991198 7.43256C0.0275177 9.28611 -0.0288503 11.1413 0.0225448 12.9932C0.0772558 14.9661 0.349152 16.9175 0.89792 18.8207C1.90427 22.304 3.83076 25.1457 6.80836 27.2479C8.53259 28.4664 10.4126 29.37 12.4253 30C12.621 30 12.815 30 13.0106 30C13.178 29.9503 13.3455 29.9055 13.5096 29.8475C15.1327 29.2722 16.6812 28.5444 18.1219 27.5944C20.2639 26.1835 21.9716 24.3714 23.1968 22.1117C24.5778 19.5651 25.1365 16.8014 25.3637 13.9515C25.5477 11.6685 25.4946 9.38558 25.4217 7.10264ZM23.2664 16.5527C22.3794 21.4236 19.7715 25.0047 15.3018 27.1832C14.5508 27.5496 13.7649 27.8464 12.989 28.1597C12.8564 28.2128 12.674 28.231 12.5414 28.1862C10.4723 27.4667 8.54253 26.4902 6.86141 25.0628C4.54034 23.0932 3.12781 20.5814 2.41325 17.6436C1.86614 15.3905 1.71693 13.0993 1.71693 10.7931C1.71693 9.63261 1.74842 8.47042 1.77164 7.30988C1.78821 6.50082 2.2458 5.96863 3.04657 5.85092C3.95179 5.71829 4.87192 5.65695 5.76719 5.47624C8.27229 4.97223 10.4591 3.82827 12.3242 2.07587C12.7155 1.70781 12.7287 1.70781 13.1134 2.07089C14.9769 3.82496 17.1636 4.97057 19.6687 5.47458C20.564 5.65529 21.4842 5.71663 22.3894 5.84926C23.1951 5.96698 23.661 6.49584 23.6693 7.30159C23.6792 8.39415 23.6726 9.48671 23.6726 10.5793C23.7273 12.5837 23.6262 14.5781 23.2664 16.5527Z" fill="#1B84FF"/>
<path d="M12.7254 7.53544C8.63205 7.52218 5.28142 10.8662 5.24826 14.996C5.21676 19.0828 8.64034 22.5063 12.7304 22.4798C16.8569 22.4516 20.1993 19.106 20.1926 15.006C20.186 10.8977 16.837 7.54705 12.7254 7.53544ZM12.7171 20.7191C9.56877 20.7125 6.98906 18.1262 7.00896 14.9977C7.02885 11.8493 9.55551 9.32101 12.7088 9.29614C15.8323 9.26961 18.422 11.8526 18.4303 15.0043C18.4369 18.1427 15.8556 20.7258 12.7171 20.7191Z" fill="#1B84FF"/>
<path d="M14.957 12.6186C14.8641 12.6899 14.7829 12.7744 14.7 12.8573C13.6787 13.8769 12.6575 14.8965 11.6412 15.9195C11.5665 15.9941 11.5201 16.0969 11.4405 16.2179C11.0808 15.8515 10.7873 15.5547 10.4939 15.258C10.275 15.0375 10.0147 14.9181 9.7014 14.9728C9.35821 15.0325 9.11119 15.2298 9.00343 15.5647C8.89732 15.8962 8.96364 16.2046 9.21233 16.4566C9.69146 16.944 10.1739 17.4248 10.658 17.9073C11.1687 18.4163 11.6312 18.413 12.1468 17.8973C13.43 16.6158 14.7116 15.3326 15.9932 14.0493C16.0611 13.9797 16.1324 13.9117 16.1905 13.8338C16.4524 13.484 16.4126 12.9899 16.1042 12.6849C15.7892 12.3749 15.3101 12.345 14.957 12.6186Z" fill="#1B84FF"/>
</svg>
