<svg width="51" height="50" viewBox="0 0 51 50" fill="none" xmlns="http://www.w3.org/2000/svg">
<path d="M47.4195 34.2441C45.7072 33.8583 44.3488 34.6714 43.4304 36.6324C40.3692 36.6324 37.3017 36.6324 34.2118 36.6324C34.2118 35.5196 34.2118 34.4354 34.2118 33.3512C35.9146 33.0802 36.6863 32.1778 36.6895 30.4814C36.6895 29.7735 36.6895 29.0688 36.6895 28.3195C38.0447 28.3195 39.3457 28.329 40.6435 28.3163C41.3705 28.3099 42.1071 28.3131 42.8246 28.2238C46.769 27.7295 49.8525 24.3527 50.0183 20.3764C50.1873 16.3331 47.4482 12.6916 43.542 11.8784C42.5057 11.6616 41.4183 11.6871 40.2927 11.5946C40.2863 11.5755 40.2481 11.4448 40.2098 11.3109C38.2934 4.89835 32.5728 0.281086 25.9148 0.0164231C19.5182 -0.238674 14.6204 2.4813 11.2722 7.94676C11.0968 8.23374 10.9342 8.33578 10.5866 8.34216C9.73845 8.35491 8.87749 8.36767 8.05162 8.5271C3.3642 9.41357 -0.0158341 13.5717 0.00010944 18.3675C0.016053 23.125 3.4216 27.2991 8.09945 28.1026C9.60771 28.3609 11.1766 28.2621 12.7167 28.3226C12.9176 28.3322 13.1153 28.3226 13.3417 28.3226C13.3417 29.2155 13.3226 30.0286 13.3481 30.8449C13.38 31.9163 13.9029 32.688 14.885 33.1217C15.1784 33.2492 15.5036 33.3002 15.8002 33.38C15.8002 34.4769 15.8002 35.5578 15.8002 36.6452C12.704 36.6452 9.64917 36.6452 6.58481 36.6452C6.52104 36.4921 6.46364 36.3455 6.40305 36.2052C5.78125 34.7447 4.23473 33.9157 2.7169 34.225C1.12254 34.5502 0.00967559 35.8767 0.00010944 37.4615C-0.0126454 39.0814 1.09065 40.427 2.70414 40.7618C4.22516 41.0775 5.78763 40.2612 6.38711 38.7944C6.53698 38.4309 6.70279 38.3161 7.09819 38.3193C10.1721 38.3384 13.2492 38.3288 16.3232 38.3288C17.2702 38.3288 17.5125 38.0833 17.5125 37.1203C17.5125 36.0075 17.5125 34.8978 17.5125 33.7849C17.5125 33.6382 17.5317 33.4884 17.5412 33.3576C18.1088 33.3576 18.6254 33.3576 19.142 33.3576C19.142 35.5834 19.142 37.7772 19.142 39.9965C16.9864 39.9965 14.8691 39.9965 12.7518 39.9965C11.9642 39.9965 11.6772 40.2771 11.674 41.052C11.6708 41.8332 11.674 42.6145 11.674 43.4021C11.4667 43.4914 11.2722 43.5647 11.0841 43.654C9.54712 44.381 8.81053 46.1157 9.34942 47.7228C9.88831 49.3299 11.5401 50.277 13.1855 49.9198C14.6427 49.6041 15.7141 48.402 15.8321 46.9447C15.9533 45.4779 15.1114 44.1323 13.7307 43.552C13.5809 43.4882 13.3704 43.3447 13.3608 43.2235C13.3194 42.7133 13.3417 42.1999 13.3417 41.661C15.5355 41.661 17.6528 41.6642 19.7702 41.661C20.5546 41.661 20.8447 41.3772 20.8447 40.5992C20.8479 38.3767 20.8447 36.1541 20.8447 33.9284C20.8447 33.7435 20.8447 33.5553 20.8447 33.3576C21.9799 33.3576 23.0641 33.3576 24.1514 33.3576C24.1514 36.1796 24.1514 38.9666 24.1514 41.7408C22.2701 42.5762 21.4123 43.9569 21.7376 45.5927C22.0533 47.168 23.3479 48.2904 24.9072 48.3318C26.4601 48.3733 27.8567 47.3338 28.2362 45.8542C28.6539 44.228 27.8727 42.4168 25.8829 41.728C25.8829 38.9347 25.8829 36.1478 25.8829 33.3672C26.999 33.3672 28.0831 33.3672 29.1832 33.3672C29.1832 35.8034 29.18 38.2013 29.1832 40.596C29.1832 41.3772 29.467 41.661 30.2515 41.661C32.1966 41.6642 34.1417 41.661 36.0868 41.661C36.2717 41.661 36.4567 41.661 36.6863 41.661C36.6863 42.0437 36.6576 42.3753 36.6927 42.6974C36.7469 43.2044 36.5938 43.4627 36.0772 43.6859C34.6646 44.2949 33.9408 45.851 34.266 47.3497C34.5945 48.8771 35.9146 49.974 37.4548 49.9995C38.9853 50.025 40.3597 48.9919 40.7423 47.5315C41.1377 46.0168 40.4617 44.4576 39.0906 43.7273C38.861 43.6062 38.6186 43.5137 38.3572 43.3989C38.3572 42.6559 38.3572 41.9098 38.3572 41.1636C38.3572 40.2453 38.1053 39.9965 37.1805 39.9965C35.0983 39.9965 33.0129 39.9965 30.8892 39.9965C30.8892 37.7421 30.8892 35.5483 30.8892 33.3512C31.4408 33.3512 31.9542 33.3512 32.4612 33.3512C32.4867 33.4055 32.5091 33.4373 32.5123 33.466C32.5186 34.716 32.5186 35.966 32.5218 37.216C32.525 38.061 32.7929 38.3256 33.6506 38.3256C36.7246 38.3256 39.8017 38.3256 42.8756 38.3256C43.0637 38.3256 43.2518 38.3256 43.4208 38.3256C44.3264 40.2899 45.6848 41.1126 47.3717 40.7491C48.931 40.4111 50.0215 39.0846 50.0311 37.5157C50.0374 35.9373 48.966 34.5917 47.4195 34.2441ZM3.31956 39.1579C2.40759 39.1483 1.66781 38.399 1.671 37.4902C1.67419 36.5623 2.44905 35.8066 3.37696 35.8289C4.28575 35.8512 5.01277 36.6101 5.00002 37.5221C4.98726 38.4213 4.21878 39.1675 3.31956 39.1579ZM14.1739 46.6673C14.1708 47.5793 13.4246 48.3223 12.5158 48.3287C11.5847 48.335 10.8258 47.5634 10.8417 46.6354C10.8577 45.7267 11.6102 44.9933 12.5222 44.9996C13.4246 45.0028 14.1771 45.7649 14.1739 46.6673ZM37.5472 44.9964C38.4465 45.006 39.199 45.7713 39.1894 46.6705C39.183 47.5793 38.4369 48.3223 37.5281 48.3255C36.6002 48.3287 35.8413 47.5538 35.8604 46.6259C35.8764 45.7203 36.6353 44.9901 37.5472 44.9964ZM13.3449 14.1392C13.3289 15.2521 13.2907 16.365 13.3608 17.4715C13.3959 18.0359 13.6446 18.5843 13.8423 19.3018C13.077 20.5358 13.077 24.426 13.9316 25.8131C13.922 25.845 13.9125 25.8769 13.8997 25.9088C13.6606 26.6007 13.1536 26.7155 12.4807 26.6645C11.0809 26.5625 9.64597 26.6932 8.2812 26.4317C4.25386 25.6633 1.51475 22.0441 1.671 17.8987C1.82087 13.9543 4.91392 10.5774 8.88706 10.0736C9.60134 9.98435 10.3411 10.0194 11.0618 10.0673C11.8334 10.1183 12.0152 10.0386 12.3915 9.36255C15.2964 4.1203 19.7606 1.48961 25.7394 1.67456C31.9319 1.86269 37.3272 6.40023 38.7749 12.4269C38.794 12.5098 38.8195 12.5959 38.8387 12.6788C39.0364 13.4728 39.3584 13.6833 40.1524 13.4951C41.6639 13.1348 43.1211 13.2974 44.521 13.9479C47.3111 15.2457 48.8576 18.3483 48.2199 21.3298C47.563 24.4037 44.9068 26.6071 41.7946 26.6454C40.3884 26.6613 38.979 26.6199 37.5727 26.6645C36.8776 26.6868 36.3068 26.6263 36.1187 25.794C36.9446 24.2634 36.9446 20.4465 36.0613 19.1391C36.7118 18.4281 36.7086 17.5257 36.6863 16.6169C36.6672 15.8006 36.6927 14.9843 36.6799 14.1679C36.6576 12.7362 35.5957 11.652 34.1704 11.6489C28.0544 11.6393 21.9417 11.6393 15.8257 11.6489C14.4354 11.6552 13.364 12.7426 13.3449 14.1392ZM15.0126 14.2987C15.019 13.6195 15.3219 13.3166 16.0043 13.3166C22.015 13.3134 28.0257 13.3134 34.0365 13.3166C34.7157 13.3166 35.0154 13.6259 35.0218 14.3082C35.0282 15.2967 35.0282 16.2884 35.0218 17.2769C35.0186 18.0231 34.7252 18.3133 33.9759 18.3133C31.004 18.3165 28.0353 18.3133 25.0634 18.3133C22.0915 18.3133 19.1228 18.3133 16.151 18.3133C15.2677 18.3133 15.0094 18.0518 15.0094 17.1621C15.0094 16.2119 15.003 15.2553 15.0126 14.2987ZM15.0094 20.9758C15.0158 20.2935 15.3155 19.9842 15.9947 19.9842C22.0054 19.981 28.0162 19.981 34.0269 19.9842C34.7093 19.9842 35.0154 20.2903 35.0186 20.9695C35.025 21.958 35.025 22.9497 35.0186 23.9382C35.0154 24.6875 34.7252 24.9809 33.9791 24.9841C30.9912 24.9873 28.0034 24.9841 25.0156 24.9841C22.0628 24.9841 19.1101 24.9841 16.1573 24.9841C15.2677 24.9841 15.0094 24.7258 15.0094 23.8393C15.0094 22.8891 15.003 21.9325 15.0094 20.9758ZM26.6801 44.9869C26.6833 45.8988 25.9435 46.6482 25.0347 46.6578C24.1036 46.6673 23.3383 45.9052 23.3479 44.9741C23.3575 44.0653 24.1068 43.3287 25.0188 43.3287C25.9212 43.3287 26.6801 44.0877 26.6801 44.9869ZM15.9979 31.6549C15.3155 31.6549 15.0158 31.3455 15.0094 30.6664C15.003 29.6779 15.003 28.6862 15.0094 27.6977C15.0126 26.9483 15.3028 26.6581 16.0521 26.6581C19.0399 26.6549 22.0278 26.6581 25.0156 26.6581C27.9683 26.6581 30.9211 26.6581 33.8738 26.6581C34.7603 26.6581 35.0186 26.9164 35.0218 27.8029C35.0218 28.7595 35.0281 29.7129 35.0186 30.6695C35.0122 31.3487 34.7093 31.658 34.0301 31.658C28.0194 31.658 22.0086 31.658 15.9979 31.6549ZM46.702 39.1579C45.7709 39.1579 45.012 38.3862 45.0312 37.4583C45.0503 36.5495 45.8092 35.8161 46.718 35.8289C47.6268 35.8416 48.3634 36.591 48.3634 37.4998C48.3602 38.4022 47.6013 39.1579 46.702 39.1579Z" fill="#1B84FF"/>
<path d="M26.6578 15.0098C23.3288 15.0098 20.0253 15.0098 16.6995 15.0098C16.6995 15.5518 16.6995 16.0652 16.6995 16.6105C20.0508 16.6105 23.3543 16.6105 26.6578 16.6105C26.6578 16.0589 26.6578 15.5455 26.6578 15.0098Z" fill="#1B84FF"/>
<path d="M29.9804 15.0066C29.4287 15.0066 28.9153 15.0066 28.3796 15.0066C28.3796 15.5582 28.3796 16.0812 28.3796 16.6265C28.9217 16.6265 29.4351 16.6265 29.9804 16.6265C29.9804 16.0557 29.9804 15.5295 29.9804 15.0066Z" fill="#1B84FF"/>
<path d="M33.3318 15.0098C32.761 15.0098 32.2476 15.0098 31.7151 15.0098C31.7151 15.5614 31.7151 16.0876 31.7151 16.6169C32.2731 16.6169 32.7961 16.6169 33.3318 16.6169C33.3318 16.0652 33.3318 15.5518 33.3318 15.0098Z" fill="#1B84FF"/>
<path d="M26.6577 21.6869C23.316 21.6869 20.0093 21.6869 16.7185 21.6869C16.7185 22.2481 16.7185 22.7774 16.7185 23.294C20.0507 23.294 23.3415 23.294 26.6577 23.294C26.6577 22.7551 26.6577 22.2385 26.6577 21.6869Z" fill="#1B84FF"/>
<path d="M29.9964 21.6901C29.4256 21.6901 28.9027 21.6901 28.3925 21.6901C28.3925 22.2545 28.3925 22.7806 28.3925 23.2908C28.9473 23.2908 29.4607 23.2908 29.9964 23.2908C29.9964 22.7487 29.9964 22.2385 29.9964 21.6901Z" fill="#1B84FF"/>
<path d="M33.3253 21.6742C32.7833 21.6742 32.2699 21.6742 31.7246 21.6742C31.7246 22.2482 31.7246 22.7743 31.7246 23.2941C32.2763 23.2941 32.7896 23.2941 33.3253 23.2941C33.3253 22.7456 33.3253 22.2195 33.3253 21.6742Z" fill="#1B84FF"/>
<path d="M16.7026 29.9617C20.0317 29.9617 23.3352 29.9617 26.661 29.9617C26.661 29.4196 26.661 28.9062 26.661 28.3578C23.3128 28.3578 20.0093 28.3578 16.7026 28.3578C16.7026 28.9094 16.7026 29.4228 16.7026 29.9617Z" fill="#1B84FF"/>
<path d="M28.386 29.968C28.9344 29.968 29.4446 29.968 29.9963 29.968C29.9963 29.3972 29.9963 28.8838 29.9963 28.3513C29.4446 28.3513 28.9217 28.3513 28.386 28.3513C28.386 28.9062 28.386 29.4323 28.386 29.968Z" fill="#1B84FF"/>
<path d="M31.7214 29.968C32.2699 29.968 32.7801 29.968 33.3317 29.968C33.3317 29.3972 33.3317 28.8838 33.3317 28.3513C32.7801 28.3513 32.2571 28.3513 31.7214 28.3513C31.7214 28.9062 31.7214 29.4323 31.7214 29.968Z" fill="#1B84FF"/>
</svg>
