<svg width="48" height="30" viewBox="0 0 48 30" fill="none" xmlns="http://www.w3.org/2000/svg">
<path d="M47.9881 21.2834C47.7122 21.8389 47.2593 22.0228 46.6544 22.0157C44.9068 21.9945 43.1557 22.0087 41.4081 22.0087C40.4175 22.0087 40.2124 21.853 39.9152 20.8872C39.8692 20.7422 39.8161 20.5971 39.7383 20.3743C39.236 20.7139 38.7584 21.0252 38.2985 21.3577C38.2277 21.4073 38.2171 21.5771 38.2242 21.6903C38.3091 23.5864 37.0957 25.0369 35.1995 25.2598C34.8988 25.2951 34.7538 25.4048 34.5946 25.656C33.7739 26.9755 32.5321 27.5097 31.018 27.4319C30.6996 27.4142 30.5581 27.4885 30.3989 27.7467C29.5322 29.1476 27.8342 29.8587 26.458 29.4023C26.366 29.374 26.2316 29.3705 26.1573 29.4165C24.7882 30.2761 23.3873 30.0603 21.9723 29.5721C20.9039 29.2042 20.0018 28.5639 19.128 27.8811C16.6658 25.9602 14.1789 24.0676 11.7733 22.0794C10.5634 21.0783 9.50564 19.8896 8.38067 18.7859C8.32761 18.7328 8.26746 18.6833 8.21086 18.6302C8.17902 18.6727 8.15426 18.6904 8.14365 18.7187C7.63069 19.9887 7.63069 19.9887 6.24394 19.9887C4.58832 19.9887 2.9327 19.9922 1.27709 19.9887C0.332538 19.9887 0 19.6561 0 18.7257C0 12.8992 0 7.07275 0 1.24271C0 0.330004 0.38914 -0.0626764 1.29478 0.00807643C4.16026 0.230948 7.02575 0.457356 9.78865 1.317C10.3051 1.4762 10.804 1.7203 11.2851 1.97147C11.8617 2.27217 12.1058 2.76036 11.9608 3.41836C11.9254 3.58463 11.9183 3.75444 11.8935 3.98084C12.0881 3.98792 12.2508 4.00207 12.4171 4.00207C14.759 4.00207 17.1045 4.00915 19.4464 3.99146C19.7047 3.98792 20.0018 3.88887 20.207 3.73675C21.7034 2.64362 23.3166 1.95378 25.2163 2.15189C26.3943 2.2757 27.4839 2.68961 28.5664 3.14596C30.2327 3.84995 31.9095 4.52918 33.5828 5.21902C33.7243 5.27916 33.8729 5.32161 33.972 5.35345C34.0569 5.03153 34.0639 4.67069 34.2373 4.44074C34.4177 4.20018 34.7432 4.03745 35.0368 3.92071C37.7042 2.8771 40.4954 2.39245 43.3361 2.15543C44.4398 2.06345 45.5507 2.05637 46.6579 1.98916C47.27 1.95024 47.7157 2.15896 47.9916 2.71437C47.9881 8.90878 47.9881 15.0961 47.9881 21.2834ZM11.6813 6.02206C10.765 9.40051 9.86294 12.7082 8.97853 16.0194C8.93254 16.1963 8.94315 16.4829 9.04928 16.5961C10.2167 17.8095 11.324 19.1113 12.6188 20.1762C15.4772 22.5252 18.4134 24.7751 21.3638 27.0073C21.9511 27.4531 22.7329 27.6547 23.4439 27.9201C23.7163 28.0191 24.0383 27.9802 24.4557 28.012C24.3001 27.8352 24.2434 27.7679 24.1798 27.7007C23.2352 26.7456 22.2907 25.7904 21.3497 24.8317C20.9782 24.4532 20.6068 24.0711 20.2601 23.6714C19.878 23.2327 19.9098 22.6561 20.3061 22.2811C20.6952 21.9096 21.2754 21.9167 21.6963 22.3023C21.8343 22.4296 21.9546 22.5747 22.089 22.7056C23.6067 24.2126 25.1243 25.7196 26.642 27.2231C27.0311 27.6087 27.4769 27.6017 27.9367 27.3753C28.3683 27.1595 28.6832 26.834 28.899 26.2857C27.6042 25.0192 26.2953 23.7421 24.9934 22.4615C24.714 22.1891 24.4416 21.9061 24.201 21.5983C23.872 21.1809 23.9286 20.6361 24.2965 20.2788C24.675 19.9144 25.2446 19.9038 25.655 20.2611C25.8071 20.3955 25.938 20.5512 26.0795 20.6962C27.5122 22.1325 28.9273 23.5864 30.3848 24.998C31.0393 25.6312 31.9909 25.5604 32.6453 24.9307C32.9177 24.669 32.9991 24.4638 32.663 24.1312C30.8765 22.3624 29.1148 20.5688 27.353 18.7717C26.8719 18.2835 26.8648 17.6927 27.2894 17.2753C27.7174 16.8543 28.294 16.8897 28.7822 17.3814C29.2669 17.8696 29.7339 18.372 30.2185 18.8602C31.5734 20.2222 32.9354 21.5735 34.2939 22.9355C34.5698 23.215 34.8776 23.3353 35.2667 23.215C36.0698 22.9674 36.4412 22.1785 36.0662 21.432C35.8787 21.0606 35.6417 20.6927 35.3516 20.3955C34.5592 19.5783 33.7738 18.747 32.9071 18.0076C30.2716 15.7577 27.6007 13.5502 24.9298 11.3356C24.8236 11.2472 24.5901 11.2401 24.4451 11.2861C23.9569 11.4453 23.4935 11.6823 22.9982 11.8132C22.6621 11.9052 22.4251 12.0644 22.2022 12.3191C20.8013 13.9358 19.0714 14.5902 16.9594 14.0242C15.3675 13.5962 14.6246 12.3757 14.9359 10.7484C15.1659 9.54202 15.7283 8.4878 16.4288 7.5008C16.7861 6.99845 17.1859 6.52795 17.5927 6.01145C15.5727 6.02207 13.581 6.02206 11.6813 6.02206ZM37.3186 19.5889C37.8492 19.2352 38.3869 18.892 38.8999 18.5135C38.9919 18.4463 39.0485 18.2128 39.006 18.0996C37.828 14.8308 36.6358 11.5655 35.433 8.30384C35.3764 8.15172 35.2207 7.99253 35.0686 7.92885C32.3694 6.83218 29.656 5.76382 26.9639 4.65654C24.9757 3.83934 23.1114 3.95962 21.431 5.34992C20.4723 6.14588 19.5419 6.98784 18.6894 7.89347C17.8439 8.79557 17.1894 9.85333 16.9205 11.0915C16.7826 11.7247 16.917 11.9618 17.5396 12.1068C17.9146 12.1917 18.3108 12.2518 18.6894 12.2165C19.7223 12.1245 20.3874 11.4523 20.9959 10.6847C21.1905 10.437 21.4381 10.1682 21.7176 10.062C22.6126 9.71536 23.5465 9.46419 24.4486 9.12811C24.9828 8.93 25.3967 9.01137 25.8142 9.39697C26.5924 10.1186 27.3884 10.8226 28.1985 11.5054C31.294 14.1268 34.63 16.4723 37.3186 19.5889ZM36.4483 5.56217C36.5827 5.86995 36.7136 6.14942 36.8304 6.4395C38.624 10.7307 40.1558 15.1173 41.5814 19.5429C41.7017 19.9144 41.8644 20.0134 42.2323 20.0064C43.3078 19.9816 44.3868 19.9993 45.4658 19.9957C45.632 19.9957 45.7948 19.9781 45.961 19.971C45.961 14.6327 45.961 9.34745 45.961 4.06221C43.9021 3.87472 38.3975 4.74144 36.4483 5.56217ZM2.01645 17.9828C3.45274 17.9828 4.85364 17.9828 6.27224 17.9828C6.57294 17.0029 6.88071 16.0371 7.16018 15.0643C8.22855 11.3957 9.28984 7.72721 9.88063 3.9384C9.94077 3.55633 9.85233 3.38299 9.5021 3.3087C8.17902 3.02568 6.85948 2.69669 5.52579 2.47028C4.37606 2.27571 3.20864 2.1908 2.01645 2.05283C2.01645 7.38759 2.01645 12.6587 2.01645 17.9828Z" fill="white"/>
</svg>
