<svg width="26" height="30" viewBox="0 0 26 30" fill="none" xmlns="http://www.w3.org/2000/svg">
<path d="M25.0045 22.1651C25.0023 21.7269 24.9876 21.2865 24.9379 20.8506C24.4952 16.9501 21.1018 13.8266 17.1821 13.7701C14.1365 13.7261 11.0897 13.7589 8.04298 13.7577C7.12602 13.7577 6.24294 13.9328 5.37792 14.232C2.39554 15.2664 0.129109 18.2319 0.0376386 21.3452C-0.0233416 23.4321 0.00263144 25.5235 0.026346 27.6115C0.0365093 28.5691 0.533385 29.2738 1.37694 29.7176C1.61409 29.8418 1.88285 29.9073 2.13694 29.9999C9.05254 29.9999 15.9681 29.9999 22.8826 29.9999C22.8973 29.9875 22.9109 29.9694 22.9278 29.9649C24.3563 29.5821 25.0068 28.7374 25.0068 27.2603C25.0079 25.5619 25.0124 23.8635 25.0045 22.1651Z" fill="white"/>
<path d="M12.5036 12.4942C15.9512 12.4987 18.7473 9.71844 18.7642 6.26967C18.7812 2.82429 15.9682 0.00225989 12.516 1.3607e-06C9.06159 -0.00225717 6.25086 2.80735 6.25538 6.25838C6.25989 9.69924 9.05595 12.4896 12.5036 12.4942Z" fill="white"/>
</svg>
