<svg width="23" height="20" viewBox="0 0 23 20" fill="none" xmlns="http://www.w3.org/2000/svg">
<g clip-path="url(#clip0_9_41)">
<path d="M22.4877 7.24206C22.4099 7.68035 22.3553 8.12273 22.2515 8.55419C21.9743 9.69428 21.4159 10.7019 20.7209 11.6345C19.6464 13.0736 18.3411 14.2901 16.9921 15.463C15.4028 16.8461 13.8053 18.2183 12.2078 19.5919C11.5948 20.1189 10.9353 20.1421 10.3454 19.6301C8.26735 17.8292 6.18515 16.0323 4.13163 14.2027C3.0762 13.2606 2.12863 12.212 1.35582 11.0187C-0.0300304 8.87778 -0.405508 6.58532 0.472427 4.17543C1.26571 1.99493 2.80722 0.56948 5.12153 0.123002C7.52049 -0.339859 9.45249 0.518961 10.9858 2.36631C11.0609 2.45643 11.1292 2.55064 11.2029 2.64212C11.2111 2.65304 11.2247 2.66123 11.2602 2.68991C11.3435 2.58341 11.4255 2.47691 11.5101 2.37177C12.399 1.28357 13.4831 0.486192 14.8703 0.157137C17.2884 -0.41632 19.8553 0.594056 21.2521 2.64758C21.9416 3.66205 22.3239 4.78166 22.4468 5.99548C22.455 6.0733 22.4727 6.15113 22.4864 6.22896C22.4877 6.56893 22.4877 6.90482 22.4877 7.24206ZM11.2439 18.6702C11.3012 18.6252 11.3476 18.5911 11.3913 18.5542C13.1677 17.0195 14.955 15.4958 16.7149 13.9433C17.9451 12.8592 19.1139 11.7096 20.0259 10.3305C20.8943 9.01705 21.3217 7.58887 21.1237 6.00777C20.9093 4.30105 20.1789 2.88379 18.6619 1.9922C17.2488 1.16205 15.7592 1.05965 14.2586 1.7792C13.3711 2.2052 12.7171 2.90017 12.1682 3.70301C12.0904 3.81771 12.0194 3.93786 11.9375 4.04982C11.5756 4.54408 10.9312 4.54272 10.5639 4.05255C10.2444 3.62655 9.95085 3.17325 9.5863 2.78958C8.40935 1.54709 6.95659 1.06511 5.28128 1.42693C3.47352 1.81743 2.28701 2.96298 1.68488 4.68608C0.985808 6.68909 1.31896 8.5733 2.4727 10.3292C3.18816 11.4187 4.06473 12.3731 5.02868 13.2402C6.62207 14.6738 8.2455 16.0706 9.85937 17.481C10.3168 17.8797 10.7783 18.2702 11.2439 18.6702Z" fill="#8F8F8F"/>
</g>
<defs>
<clipPath id="clip0_9_41">
<rect width="22.4877" height="20" fill="white"/>
</clipPath>
</defs>
</svg>
