<svg width="43" height="32" viewBox="0 0 43 32" fill="none" xmlns="http://www.w3.org/2000/svg">
<g clip-path="url(#clip0_9_25)">
<path d="M21.2034 1.82968C21.075 0.766757 20.1531 -0.00768687 19.0166 5.75682e-05C16.9371 0.0116742 14.9035 0.321452 12.9486 1.04168C6.92277 3.25853 2.90173 7.45601 0.921868 13.6167C-0.218515 17.1656 -0.0901017 20.8461 0.201223 24.4744C0.576879 29.1579 4.98316 32.5325 9.57153 31.9245C14.524 31.2682 17.8149 26.5886 16.7952 21.6477C15.8868 17.2411 11.5801 14.273 7.18535 15.061C6.36312 15.2082 5.57156 15.518 4.74167 15.76C4.74742 15.7096 4.74934 15.6399 4.76467 15.5741C6.15613 9.48505 11.8446 4.65253 18.0257 4.30596C18.5508 4.27692 19.0875 4.29435 19.5973 4.18786C20.6649 3.96714 21.3376 2.9352 21.2034 1.82968Z" fill="#DD7A32"/>
<path d="M40.1702 0.00195312C37.2704 0.00195312 34.4817 0.582786 31.9154 1.93613C25.0846 5.5431 21.466 11.2546 21.213 19.0629C21.1517 20.9332 21.1172 22.8248 21.3108 24.6796C21.7842 29.1965 26.248 32.5731 30.7118 31.9187C35.6413 31.1965 38.8286 26.7067 37.9163 21.7677C37.1477 17.6031 33.1363 14.5557 28.9734 14.9545C27.8848 15.0591 26.8632 15.3708 25.8033 15.878C25.8531 15.6554 25.88 15.5218 25.9145 15.3882C26.6428 12.6293 28.0343 10.2653 30.0965 8.31754C32.9446 5.63216 36.3408 4.3156 40.2296 4.24397C41.4409 4.22267 42.3341 3.27591 42.3187 2.09101C42.3072 0.917732 41.3758 0.00195312 40.1702 0.00195312Z" fill="#DD7A32"/>
</g>
<defs>
<clipPath id="clip0_9_25">
<rect width="42.3226" height="32" fill="white"/>
</clipPath>
</defs>
</svg>
