<svg width="37" height="30" viewBox="0 0 37 30" fill="none" xmlns="http://www.w3.org/2000/svg">
<path d="M34.5128 25.4358C25.6295 25.4358 16.7463 25.4358 7.86309 25.4358C7.72811 25.4358 7.59313 25.4483 7.52094 25.4515C7.52094 26.3869 7.52094 27.2846 7.52094 28.22C7.60569 28.22 7.75636 28.22 7.90703 28.22C16.762 28.22 25.617 28.22 34.472 28.22C34.6101 28.22 34.7513 28.2263 34.8863 28.2138C35.5863 28.1447 36.1042 27.6331 36.1638 26.955C36.2423 26.0385 35.5894 25.4358 34.5128 25.4358Z" fill="#1B84FF"/>
<path d="M1.7076 4.56829C10.5626 4.56829 19.4175 4.56829 28.2725 4.56829C28.42 4.56829 28.5676 4.56829 28.6523 4.56829C28.6523 3.61405 28.6523 2.71317 28.6523 1.78404C28.577 1.78404 28.442 1.78404 28.3039 1.78404C19.4207 1.78404 10.5375 1.78404 1.65424 1.78404C1.52868 1.78404 1.40313 1.77776 1.28071 1.79032C0.439468 1.87507 -0.112993 2.59703 0.0282596 3.42885C0.150679 4.17592 0.731386 4.56829 1.7076 4.56829Z" fill="#1B84FF"/>
<path d="M13.7517 16.377C13.7517 15.4573 13.7517 14.5721 13.7517 13.6116C13.6607 13.6116 13.5132 13.6116 13.3625 13.6116C9.47336 13.6116 5.58106 13.6116 1.69191 13.6147C1.48473 13.6147 1.27442 13.6241 1.07353 13.6649C0.517938 13.7811 0.113008 14.2174 0.0282567 14.7667C-0.0659117 15.3662 0.182069 15.9438 0.709413 16.2012C0.960529 16.3236 1.26501 16.3895 1.54437 16.3895C5.51828 16.4021 9.49219 16.399 13.4661 16.3958C13.5822 16.3927 13.7015 16.3801 13.7517 16.377Z" fill="#1B84FF"/>
<path d="M34.654 13.6115C30.6518 13.6083 26.6528 13.6083 22.6507 13.6115C22.5471 13.6115 22.4466 13.6335 22.4215 13.6366C22.4215 14.5657 22.4215 15.4509 22.4215 16.3957C22.5439 16.3957 22.7072 16.3957 22.8735 16.3957C25.7676 16.3957 28.6617 16.3957 31.5527 16.3957C32.6043 16.3957 33.6558 16.4051 34.7105 16.3926C35.6836 16.38 36.3082 15.6392 36.1419 14.7289C36.0194 14.0478 35.4513 13.6115 34.654 13.6115Z" fill="#1B84FF"/>
<path d="M14.9132 15.0115C14.9163 16.7725 16.3131 18.1724 18.0772 18.1756C19.8601 18.1787 21.2664 16.7725 21.2632 14.9927C21.2601 13.2317 19.8601 11.8318 18.0992 11.8286C16.3194 11.8224 14.91 13.2317 14.9132 15.0115Z" fill="#1B84FF"/>
<path d="M33.1128 6.35426C34.8235 6.31659 36.2172 4.84129 36.1733 3.12114C36.1262 1.3288 34.6917 -0.0429184 32.9182 0.00102687C31.1258 0.0449721 29.7635 1.50144 29.8169 3.31576C29.864 5.03904 31.3361 6.39506 33.1128 6.35426Z" fill="#1B84FF"/>
<path d="M3.1672 23.6467C1.41567 23.6499 0.00314412 25.0655 5.17551e-06 26.8171C-0.00313377 28.5906 1.42195 30.0094 3.19232 30C4.96583 29.9905 6.36893 28.5686 6.35952 26.7888C6.34696 25.0467 4.92501 23.6436 3.1672 23.6467Z" fill="#1B84FF"/>
</svg>
