<svg width="34" height="30" viewBox="0 0 34 30" fill="none" xmlns="http://www.w3.org/2000/svg">
<path d="M32.3993 12.4667C30.4974 9.15265 28.5863 5.84314 26.666 2.53821C25.6979 0.869719 24.2217 0.0228873 22.3014 0.0137324C18.4747 -0.00457747 14.6502 -0.00457747 10.8234 0.0137324C8.90318 0.0228873 7.42465 0.865142 6.45423 2.53134C4.52941 5.84543 2.6206 9.16867 0.700354 12.485C0.338734 13.1099 0.146479 13.7873 0 14.4831C0 14.8287 0 15.172 0 15.5176C0.178521 16.7947 0.885741 17.8361 1.50828 18.9141C3.13786 21.7407 4.7743 24.5627 6.3993 27.3893C7.06761 28.5497 7.99913 29.3919 9.29684 29.7581C9.79808 29.9 10.3336 29.9824 10.8555 29.9847C14.6593 30.003 18.4632 30.0053 22.2694 29.9893C24.2011 29.9801 25.691 29.1425 26.666 27.4625C28.5863 24.1576 30.4974 20.8481 32.3993 17.534C33.3629 15.8541 33.3629 14.149 32.3993 12.4667ZM16.5727 25.4141C10.8463 25.4301 6.13381 20.7199 6.14525 14.9912C6.1567 9.26251 10.8372 4.58662 16.559 4.58662C22.2831 4.58891 26.9636 9.26479 26.9704 14.9935C26.9773 20.713 22.3037 25.3958 16.5727 25.4141Z" fill="#1B84FF"/>
<path d="M16.5476 6.52516C11.8785 6.53432 8.07466 10.3474 8.08382 15.0095C8.09297 19.6785 11.906 23.4824 16.5682 23.4732C21.2372 23.4641 25.0411 19.6511 25.0319 14.9889C25.0227 10.3199 21.2074 6.51601 16.5476 6.52516ZM16.5544 20.6901C13.4257 20.6879 10.8807 18.1519 10.8646 15.0209C10.8486 11.8831 13.3983 9.31742 16.5407 9.30826C19.6785 9.29911 22.2419 11.851 22.2465 14.9935C22.2534 18.1336 19.6946 20.6924 16.5544 20.6901Z" fill="#1B84FF"/>
</svg>
