<svg width="30" height="30" viewBox="0 0 30 30" fill="none" xmlns="http://www.w3.org/2000/svg">
<path d="M13.0284 22.7293C12.288 22.7293 11.5857 22.7293 10.8501 22.7293C10.8501 23.09 10.8501 23.4363 10.8501 23.7802C10.8501 24.3917 10.8501 25.0032 10.8501 25.6146C10.8501 26.2619 10.7593 26.3551 10.124 26.3551C9.37635 26.3551 8.62634 26.3551 7.87873 26.3551C7.76408 26.3551 7.64943 26.3551 7.4894 26.3551C7.4894 26.7802 7.47985 27.1767 7.49657 27.5732C7.49896 27.6401 7.60406 27.7142 7.67571 27.7643C8.15342 28.0987 8.35644 28.629 8.19641 29.1425C8.03877 29.6417 7.57539 29.988 7.05708 29.9904C6.54115 29.9928 6.05868 29.6465 5.90343 29.1616C5.73862 28.6457 5.92491 28.0963 6.41217 27.7858C6.57459 27.6807 6.60565 27.5685 6.60326 27.3989C6.5961 26.9666 6.59849 26.5342 6.60087 26.1019C6.60326 25.6003 6.73224 25.4713 7.24339 25.4713C8.02444 25.4689 8.8031 25.4713 9.58415 25.4713C9.6988 25.4713 9.81106 25.4713 9.94482 25.4713C9.94482 24.5422 9.94482 23.6489 9.94482 22.715C9.50294 22.715 9.06345 22.715 8.62395 22.715C8.34927 22.715 8.07459 22.7197 7.8023 22.7126C7.44163 22.7054 7.28399 22.5478 7.27921 22.1871C7.27443 21.5852 7.27683 20.9857 7.27683 20.3838C7.27683 20.281 7.27683 20.176 7.27683 20.0517C6.36202 20.0517 5.4711 20.0517 4.54435 20.0517C4.53718 20.1616 4.52285 20.2715 4.52285 20.3838C4.52046 21.1863 4.52523 21.9865 4.52046 22.789C4.51807 23.25 4.37476 23.3909 3.91377 23.3957C3.63909 23.3981 3.36441 23.4005 3.09212 23.3957C2.68129 23.3909 2.3254 23.3742 2.00773 23.797C1.60884 24.3296 0.751358 24.246 0.302314 23.742C-0.156284 23.2237 -0.082244 22.426 0.462342 22.0032C1.00215 21.5852 1.79275 21.6807 2.16058 22.254C2.30867 22.4857 2.46871 22.531 2.70279 22.5119C3.00374 22.4881 3.40263 22.586 3.57461 22.4283C3.72747 22.2898 3.63193 21.8742 3.63432 21.5804C3.6391 20.9594 3.63192 20.336 3.6367 19.715C3.64147 19.285 3.77763 19.1489 4.21234 19.1489C5.10804 19.1441 6.00613 19.1465 6.90183 19.1465C7.01648 19.1465 7.12874 19.1465 7.26011 19.1465C7.26011 18.4108 7.26011 17.7086 7.26011 16.9873C7.17651 16.9801 7.0953 16.9658 7.01648 16.9658C5.54036 16.9634 4.06425 16.9658 2.58814 16.9634C2.41617 16.9634 2.30868 16.9992 2.20836 17.164C1.91696 17.6393 1.36998 17.8328 0.866004 17.6799C0.345304 17.5223 0.00135641 17.0589 0.00135641 16.5239C0.00374494 16.0056 0.352463 15.5326 0.844501 15.3822C1.37237 15.2197 1.89785 15.4228 2.22269 15.8957C2.27763 15.9769 2.3875 16.0725 2.47348 16.0725C4.05469 16.0796 5.63591 16.0725 7.21712 16.0701C7.22429 16.0701 7.23384 16.0581 7.25772 16.039C7.25772 15.3511 7.25772 14.6513 7.25772 13.918C7.16457 13.918 7.08336 13.918 7.00215 13.918C5.52603 13.918 4.04992 13.9204 2.57381 13.9156C2.39945 13.9156 2.29674 13.961 2.19881 14.1186C1.90741 14.5868 1.36521 14.7731 0.849283 14.6154C0.354856 14.465 0.00613348 13.9944 0.00135641 13.4761C-0.00342065 12.9554 0.330969 12.4944 0.832561 12.3272C1.33415 12.16 1.89068 12.3416 2.18925 12.8025C2.30151 12.9769 2.41617 13.0342 2.6168 13.0342C4.06187 13.0247 5.50692 13.0295 6.95198 13.0295C7.04513 13.0295 7.13829 13.0295 7.25533 13.0295C7.25533 12.2986 7.25533 11.5916 7.25533 10.8463C7.13113 10.8463 7.01887 10.8463 6.90422 10.8463C6.01808 10.8463 5.13193 10.8487 4.24578 10.8463C3.76808 10.844 3.63909 10.7197 3.6367 10.2468C3.63431 9.43472 3.62476 8.62262 3.64148 7.81052C3.64626 7.54778 3.56744 7.44507 3.3047 7.47851C3.16856 7.49523 3.03001 7.49045 2.89387 7.47851C2.55469 7.44985 2.31107 7.50717 2.07699 7.83201C1.6805 8.38615 0.825399 8.37421 0.342915 7.88217C-0.132403 7.3973 -0.110903 6.61625 0.390688 6.15765C0.899446 5.69427 1.73066 5.74205 2.12237 6.30335C2.29435 6.55176 2.47109 6.61147 2.74339 6.59953C3.14227 6.58042 3.54355 6.58998 3.94483 6.59714C4.3676 6.60431 4.51568 6.75001 4.51807 7.17278C4.52284 7.97532 4.52046 8.77548 4.52046 9.57803C4.52046 9.69268 4.52046 9.80494 4.52046 9.94109C5.44721 9.94109 6.34053 9.94109 7.27444 9.94109C7.27444 9.37501 7.27444 8.80892 7.27444 8.24284C7.27444 7.27549 7.27444 7.27548 8.2418 7.27548C8.77921 7.27548 9.31664 7.2731 9.85406 7.27071C9.87316 7.27071 9.89226 7.25876 9.93526 7.24443C9.93526 6.35351 9.93526 5.45303 9.93526 4.51912C9.4265 4.51912 8.93208 4.51912 8.43766 4.51912C8.02683 4.51912 7.616 4.5215 7.20279 4.51912C6.73464 4.51673 6.59609 4.38058 6.5937 3.91721C6.59131 3.46339 6.60565 3.00956 6.58415 2.55813C6.57938 2.4387 6.49339 2.28823 6.39546 2.21657C5.93448 1.87979 5.72906 1.34715 5.89625 0.828834C6.05151 0.341573 6.53161 -0.00237617 7.04992 1.23628e-05C7.57301 0.0024009 8.0316 0.341573 8.18924 0.845553C8.35166 1.35909 8.14386 1.89651 7.67332 2.22613C7.59211 2.28345 7.49418 2.39093 7.4894 2.47931C7.4679 2.84476 7.47985 3.21259 7.47985 3.61386C7.616 3.62342 7.72587 3.63536 7.83574 3.63536C8.62635 3.63775 9.41695 3.63536 10.2076 3.63775C10.7187 3.64014 10.8405 3.76195 10.8405 4.27788C10.8429 5.15208 10.8405 6.02867 10.8405 6.90287C10.8405 7.01752 10.8405 7.12978 10.8405 7.26115C11.5738 7.26115 12.276 7.26115 13.0045 7.26115C13.0093 7.15606 13.0189 7.05335 13.0189 6.95303C13.0189 5.50797 13.0165 4.06291 13.0236 2.61784C13.0236 2.41721 12.9735 2.30256 12.7943 2.1903C12.3405 1.90606 12.1566 1.3567 12.3071 0.862273C12.4647 0.343961 12.9305 -0.00237566 13.4655 0.00240141C13.9838 0.00478994 14.4544 0.353515 14.6049 0.847941C14.7625 1.36148 14.5618 1.89173 14.1176 2.21179C14.0244 2.27867 13.9146 2.40765 13.9146 2.51036C13.9026 4.05096 13.905 5.58918 13.9074 7.12978C13.9074 7.17039 13.9169 7.20861 13.9241 7.26354C14.6359 7.26354 15.3357 7.26354 16.069 7.26354C16.069 7.07246 16.069 6.89571 16.069 6.72134C16.069 5.35033 16.0666 3.97931 16.0714 2.60829C16.0714 2.42437 16.0356 2.30972 15.8636 2.19985C15.3931 1.90128 15.2115 1.36625 15.3668 0.85033C15.5173 0.358293 15.9878 0.00717807 16.5061 0.00478954C17.0411 0.00240101 17.5045 0.34635 17.6622 0.86705C17.815 1.37103 17.6096 1.8989 17.1558 2.22374C17.0626 2.29062 16.9599 2.42437 16.9599 2.52947C16.948 4.07007 16.9528 5.60829 16.9528 7.14889C16.9528 7.17994 16.9623 7.20861 16.9719 7.26115C17.6741 7.26115 18.374 7.26115 19.112 7.26115C19.1168 7.15845 19.1263 7.04619 19.1263 6.93631C19.1287 6.04061 19.124 5.14252 19.1287 4.24682C19.1311 3.77389 19.2601 3.64253 19.733 3.64014C20.5236 3.63536 21.3142 3.64014 22.1048 3.63775C22.2195 3.63775 22.3341 3.63775 22.4894 3.63775C22.4894 3.21975 22.5037 2.83281 22.4774 2.44587C22.4703 2.35511 22.3365 2.25718 22.2434 2.18791C21.823 1.87501 21.6319 1.36148 21.7704 0.874215C21.909 0.389343 22.358 0.0310634 22.8596 0.00478954C23.3755 -0.0214843 23.8341 0.269916 24.0348 0.750012C24.2521 1.27071 24.0754 1.88457 23.5857 2.19507C23.4161 2.30256 23.366 2.41243 23.3708 2.59874C23.3827 3.04062 23.3779 3.48488 23.3731 3.92676C23.3684 4.37342 23.2298 4.51912 22.788 4.52151C21.9854 4.52628 21.1853 4.52389 20.3827 4.52389C20.2705 4.52389 20.1558 4.52389 20.0364 4.52389C20.0244 4.63616 20.0101 4.70781 20.0101 4.77947C20.0077 5.60112 20.0101 6.42039 20.0101 7.28026C20.5189 7.28026 21.0013 7.28504 21.4838 7.28026C22.7521 7.26593 22.7115 7.2301 22.6972 8.51035C22.6924 8.98328 22.6972 9.45383 22.6972 9.94586C23.6168 9.94586 24.5077 9.94586 25.4321 9.94586C25.4392 9.82883 25.4512 9.71657 25.4512 9.60669C25.4536 8.81609 25.4512 8.02548 25.4536 7.23488C25.4559 6.73329 25.5897 6.60431 26.0985 6.60192C26.4997 6.59953 26.901 6.59236 27.2999 6.60431C27.5268 6.61147 27.6773 6.56131 27.8134 6.35112C28.1001 5.90924 28.6637 5.74443 29.1558 5.90924C29.6335 6.06927 29.9703 6.53265 29.9751 7.03902C29.9798 7.55972 29.6454 8.02548 29.1462 8.19029C28.6327 8.35988 28.0786 8.17119 27.7681 7.69109C27.6677 7.53584 27.5674 7.47851 27.3907 7.48329C27.0563 7.49523 26.7195 7.48568 26.3564 7.48568C26.3493 7.62899 26.3397 7.74125 26.3397 7.85351C26.3373 8.64411 26.3397 9.43472 26.3373 10.2253C26.3349 10.7221 26.2107 10.8463 25.7211 10.8487C24.8349 10.8511 23.9488 10.8487 23.0626 10.8487C22.9504 10.8487 22.8357 10.8487 22.7115 10.8487C22.7115 11.5892 22.7115 12.2914 22.7115 13.0127C22.8142 13.0199 22.9074 13.0295 22.9981 13.0295C24.4528 13.0295 25.9098 13.0271 27.3644 13.0342C27.5483 13.0342 27.663 12.9984 27.7728 12.8264C28.069 12.3535 28.616 12.1648 29.12 12.3225C29.6383 12.4825 29.9822 12.9506 29.9751 13.4857C29.9679 14.004 29.6168 14.4721 29.1223 14.6202C28.6064 14.7755 28.0881 14.5796 27.7633 14.1258C27.6988 14.0374 27.5841 13.9299 27.491 13.9299C25.9098 13.918 24.3286 13.9204 22.7235 13.9204C22.7235 14.6346 22.7235 15.3344 22.7235 16.0629C22.8047 16.0677 22.8954 16.082 22.9838 16.082C24.4504 16.0844 25.9146 16.0796 27.3811 16.0868C27.5722 16.0868 27.6773 16.0318 27.7824 15.8694C28.0833 15.4061 28.6279 15.2245 29.1391 15.3869C29.6287 15.5422 29.9751 16.0175 29.9751 16.5358C29.9727 17.0565 29.6359 17.5103 29.1319 17.6752C28.6399 17.8352 28.0881 17.6632 27.7991 17.2094C27.6701 17.0064 27.5316 16.9634 27.3142 16.9658C25.9002 16.9753 24.4886 16.9705 23.0746 16.9705C22.9623 16.9705 22.8477 16.9705 22.7163 16.9705C22.7163 17.7014 22.7163 18.4037 22.7163 19.1537C22.8286 19.1537 22.9408 19.1537 23.0531 19.1537C23.8962 19.1537 24.7394 19.1537 25.5849 19.1537C26.2657 19.1537 26.3397 19.2277 26.3397 19.9252C26.3397 20.6632 26.3397 21.4013 26.3397 22.1393C26.3397 22.254 26.3397 22.3662 26.3397 22.5167C26.7649 22.5167 27.1518 22.531 27.5387 22.5048C27.6295 22.4976 27.7227 22.3591 27.7919 22.2659C28.1024 21.8479 28.6208 21.6592 29.108 21.8002C29.5905 21.9387 29.9512 22.3925 29.9751 22.8917C29.9989 23.4029 29.7028 23.8638 29.2227 24.0645C28.7115 24.2771 28.1096 24.1123 27.7991 23.6345C27.6749 23.4435 27.5459 23.3957 27.3405 23.4005C26.8986 23.4124 26.4544 23.41 26.0125 23.4029C25.6088 23.3957 25.4583 23.2476 25.456 22.8416C25.4512 22.039 25.4536 21.2388 25.4536 20.4363C25.4536 20.3217 25.4536 20.207 25.4536 20.0661C24.5292 20.0661 23.6311 20.0661 22.6996 20.0661C22.6996 20.7325 22.6996 21.3965 22.6996 22.0581C22.6996 22.6027 22.5778 22.7245 22.0308 22.7245C21.3692 22.7245 20.7075 22.7245 20.0292 22.7245C20.0292 23.6489 20.0292 24.5422 20.0292 25.4642C20.1558 25.4689 20.2681 25.4785 20.3803 25.4809C21.1829 25.4833 21.983 25.4785 22.7856 25.4833C23.2322 25.4857 23.3731 25.6266 23.3779 26.0685C23.3827 26.5223 23.366 26.9761 23.3875 27.4275C23.3923 27.547 23.4711 27.7046 23.5666 27.7739C24.0324 28.1178 24.2378 28.6385 24.0778 29.1592C23.9273 29.6489 23.4496 30 22.9337 30C22.413 30.0024 21.952 29.6656 21.7872 29.1664C21.6176 28.6552 21.8087 28.1059 22.2959 27.793C22.4559 27.6903 22.4989 27.5804 22.4942 27.4084C22.4846 27.074 22.4918 26.7396 22.4918 26.367C22.1908 26.367 21.9305 26.367 21.6701 26.367C21.0587 26.367 20.4472 26.367 19.8357 26.367C19.2338 26.367 19.1287 26.2643 19.1287 25.672C19.1287 24.8169 19.1287 23.9642 19.1287 23.1091C19.1287 22.9944 19.1287 22.8798 19.1287 22.7436C18.4002 22.7436 17.7004 22.7436 16.9504 22.7436C16.9504 22.8368 16.9504 22.9371 16.9504 23.0374C16.9504 24.4825 16.9528 25.9275 16.948 27.3726C16.948 27.5661 16.9886 27.6903 17.1701 27.8049C17.6359 28.1011 17.8198 28.6576 17.655 29.1592C17.4902 29.6656 17.034 30 16.5133 30C15.9974 30 15.5197 29.6513 15.3668 29.1616C15.2068 28.6481 15.3978 28.1226 15.8469 27.7954C15.9424 27.7261 16.0571 27.5995 16.0571 27.4992C16.069 25.9395 16.0642 24.3774 16.0618 22.8177C16.0618 22.7986 16.0499 22.7795 16.0356 22.7412C15.3405 22.7412 14.6407 22.7412 13.9193 22.7412C13.9146 22.8392 13.905 22.9299 13.905 23.0207C13.905 24.4753 13.9074 25.9323 13.9002 27.3869C13.9002 27.5876 13.9528 27.7022 14.1295 27.8145C14.581 28.1035 14.7577 28.6409 14.6072 29.1449C14.4592 29.6393 13.991 29.9928 13.4727 29.9976C12.952 30.0024 12.4886 29.6704 12.319 29.1712C12.1518 28.6815 12.3166 28.1274 12.7633 27.8336C12.9687 27.6974 13.0236 27.5541 13.0213 27.3224C13.0236 25.7986 13.0284 24.2794 13.0284 22.7293ZM21.8063 21.8145C21.8063 17.2524 21.8063 12.7142 21.8063 8.18552C17.2466 8.18552 12.7083 8.18552 8.17969 8.18552C8.17969 12.7404 8.17969 17.2715 8.17969 21.8145C12.7275 21.8145 17.2561 21.8145 21.8063 21.8145ZM6.97348 1.55973C7.01887 1.55973 7.06425 1.55734 7.11202 1.55734C7.19085 1.44269 7.31743 1.3352 7.33892 1.20861C7.37475 1.01275 7.23144 0.864662 7.04275 0.898101C6.92571 0.919598 6.75852 1.07724 6.75135 1.18472C6.74658 1.30654 6.89466 1.43552 6.97348 1.55973ZM13.9217 1.17517C13.6996 1.04141 13.5658 0.898101 13.444 0.907655C13.3413 0.91482 13.1932 1.09157 13.1741 1.211C13.1407 1.40447 13.3055 1.53823 13.4918 1.50001C13.6136 1.47613 13.7163 1.33759 13.9217 1.17517ZM16.5157 0.759566C16.3748 0.960203 16.2123 1.09157 16.2314 1.18711C16.2553 1.31132 16.413 1.47135 16.5372 1.49523C16.7211 1.53106 16.8644 1.36864 16.8238 1.17756C16.7951 1.05336 16.6614 0.953037 16.5157 0.759566ZM22.8644 1.55973C22.9098 1.55973 22.9552 1.55973 23.0005 1.55973C23.0865 1.44746 23.2537 1.32326 23.2394 1.22533C23.2203 1.10113 23.0555 1.00081 22.9528 0.888547C22.8501 0.986477 22.6709 1.07485 22.6614 1.17995C22.6494 1.29937 22.7903 1.43074 22.8644 1.55973ZM1.13352 7.40208C1.18129 7.39969 1.22668 7.3973 1.27445 7.39491C1.35566 7.28026 1.51569 7.14889 1.49658 7.05574C1.46792 6.93154 1.31504 6.77867 1.19084 6.7524C1.11202 6.73807 0.918552 6.92915 0.911387 7.03663C0.901833 7.15367 1.05231 7.28026 1.13352 7.40208ZM29.1486 7.13217C29.151 7.08201 29.151 7.03185 29.1534 6.9817C29.0316 6.8981 28.905 6.74762 28.7856 6.7524C28.6805 6.75717 28.5061 6.92915 28.4989 7.03424C28.4942 7.13456 28.659 7.31848 28.7665 7.33042C28.8859 7.34236 29.0196 7.20383 29.1486 7.13217ZM1.16935 13.9204C1.33416 13.7174 1.47507 13.6194 1.50135 13.4952C1.54434 13.3089 1.41058 13.1441 1.21711 13.1728C1.09768 13.1895 0.920939 13.3352 0.908996 13.4403C0.899442 13.5573 1.04037 13.6935 1.16935 13.9204ZM29.2298 13.4833C29.0411 13.3352 28.9408 13.199 28.8166 13.1704C28.6231 13.1226 28.4607 13.2635 28.4918 13.4498C28.5133 13.574 28.6709 13.7341 28.7951 13.7627C28.8907 13.7818 29.0268 13.6218 29.2298 13.4833ZM1.56106 16.6099C1.56345 16.5597 1.56584 16.5119 1.56584 16.4618C1.44403 16.3758 1.31744 16.2229 1.19801 16.2277C1.09292 16.2325 0.918552 16.4045 0.911387 16.5119C0.904221 16.6123 1.07142 16.7986 1.1789 16.8105C1.29594 16.8248 1.43208 16.6839 1.56106 16.6099ZM28.7259 16.8846C28.7712 16.8822 28.8166 16.8798 28.862 16.8774C28.9408 16.7603 29.1009 16.6266 29.0817 16.531C29.0555 16.4068 28.8859 16.3137 28.776 16.2086C28.6757 16.3113 28.5013 16.4116 28.4965 16.5191C28.4918 16.6361 28.6446 16.7627 28.7259 16.8846ZM1.55868 23.0374C1.56107 22.992 1.56106 22.9466 1.56345 22.8989C1.45358 22.8129 1.35327 22.6791 1.23146 22.6505C1.04037 22.6051 0.880329 22.7388 0.904214 22.9275C0.918545 23.047 1.06902 23.2213 1.17412 23.2333C1.29116 23.25 1.4297 23.1091 1.55868 23.0374ZM28.7259 23.3049C28.7712 23.3025 28.8142 23.3025 28.8596 23.3002C28.9408 23.1855 29.0722 23.0756 29.0913 22.9514C29.12 22.7603 28.979 22.6099 28.7856 22.6529C28.6661 22.6791 28.4989 22.8344 28.4965 22.9347C28.4942 23.0565 28.6423 23.1807 28.7259 23.3049ZM7.39626 28.8654C7.39865 28.8177 7.40103 28.7723 7.40342 28.7245C7.2816 28.6409 7.1574 28.4904 7.04275 28.4976C6.93526 28.5048 6.74179 28.6958 6.75612 28.7747C6.78 28.8989 6.93048 29.0541 7.05469 29.0828C7.14784 29.1043 7.28161 28.9443 7.39626 28.8654ZM13.5396 28.4283C13.4942 28.4283 13.4488 28.4307 13.4034 28.4307C13.3222 28.5454 13.1932 28.6505 13.1693 28.7747C13.1335 28.9681 13.2768 29.1186 13.4655 29.0852C13.5849 29.0637 13.7545 28.906 13.7617 28.8009C13.7689 28.6839 13.6208 28.5525 13.5396 28.4283ZM16.9623 28.7842C16.7665 28.6409 16.6375 28.4761 16.5419 28.4952C16.4177 28.5191 16.3198 28.6863 16.2099 28.7914C16.3222 28.8941 16.4225 29.0589 16.5467 29.0828C16.6423 29.0971 16.7689 28.9323 16.9623 28.7842ZM23.3039 28.8511C23.3039 28.8057 23.3063 28.7603 23.3063 28.715C23.1821 28.6337 23.0531 28.488 22.9337 28.4952C22.831 28.5 22.6781 28.6696 22.6542 28.789C22.6136 28.9825 22.7689 29.121 22.9599 29.0876C23.0841 29.0685 23.1892 28.9347 23.3039 28.8511Z" fill="#1B84FF"/>
</svg>
