<svg width="36" height="30" viewBox="0 0 36 30" fill="none" xmlns="http://www.w3.org/2000/svg">
<path d="M15.057 20.9837C13.94 21.9091 12.9084 22.7609 11.8798 23.6156C9.62515 25.4842 7.37341 27.3557 5.11578 29.2155C4.09896 30.0525 2.9613 30.2441 1.7647 29.6723C0.588722 29.1123 0.00515778 28.1309 0.00221048 26.8252C-0.000736825 18.9382 -0.000736825 11.0542 0.00221048 3.16723C0.00221048 1.87631 0.59167 0.906652 1.75585 0.355507C2.93183 -0.201533 4.07243 -0.0512208 5.07746 0.782865C8.2635 3.42365 11.4377 6.07622 14.6149 8.72584C14.6945 8.79068 14.7741 8.85552 14.9273 8.97636C14.9273 8.77889 14.9273 8.64626 14.9273 8.51069C14.9273 6.7541 14.9273 4.99751 14.9273 3.24091C14.9273 1.90579 15.4932 0.891915 16.7046 0.320139C17.9159 -0.251637 19.0624 -0.0394317 20.0851 0.812338C24.4265 4.42278 28.7679 8.03323 33.1122 11.6437C33.3716 11.8588 33.6722 12.0268 33.908 12.2626C35.5083 13.8571 35.4229 16.4389 33.7017 17.9568C32.785 18.7673 31.8272 19.5277 30.887 20.3087C27.3266 23.2708 23.7663 26.2358 20.203 29.1919C18.3374 30.7392 15.6612 29.8757 15.1337 27.5561C15.0718 27.282 15.0629 26.9873 15.0629 26.7044C15.057 24.9743 15.06 23.2442 15.06 21.5112C15.057 21.3757 15.057 21.2342 15.057 20.9837ZM17.4267 14.9712C17.4267 15.1657 17.4267 15.3602 17.4267 15.5577C17.4267 19.2536 17.4267 22.9466 17.4237 26.6425C17.4237 26.9402 17.4414 27.2231 17.7361 27.3852C18.0721 27.5709 18.3256 27.397 18.579 27.1877C22.9499 23.5508 27.3237 19.9197 31.6857 16.2768C31.9451 16.0587 32.1779 15.761 32.3164 15.4545C32.5994 14.8297 32.3577 14.2461 31.6621 13.6685C28.7413 11.2399 25.8206 8.81131 22.8998 6.38274C21.4291 5.15961 19.9554 3.93942 18.4877 2.71629C18.2195 2.4923 17.9189 2.36851 17.6565 2.63966C17.5092 2.79292 17.4325 3.07587 17.4325 3.29986C17.4237 7.19324 17.4267 11.0807 17.4267 14.9712ZM2.43078 14.9535C2.43078 18.8174 2.43078 22.6813 2.43078 26.5423C2.43078 26.6602 2.42194 26.7781 2.43668 26.893C2.48973 27.3882 2.96425 27.6121 3.38571 27.341C3.47413 27.285 3.55076 27.2143 3.63034 27.1465C7.30857 24.0842 10.9839 21.0161 14.668 17.9597C14.8713 17.7917 14.9362 17.6178 14.9362 17.3644C14.9273 15.7787 14.9244 14.1901 14.9362 12.6045C14.9391 12.3304 14.8507 12.1594 14.6385 11.9826C12.0242 9.81634 9.41883 7.64123 6.81047 5.46907C5.70229 4.54362 4.59116 3.62406 3.48003 2.69861C3.26487 2.51883 3.04087 2.41567 2.76678 2.55419C2.49857 2.68977 2.41899 2.92261 2.43078 3.2026C2.43373 3.29397 2.43078 3.38533 2.43078 3.4767C2.43078 7.30524 2.43078 11.1279 2.43078 14.9535Z" fill="#1B84FF"/>
</svg>
