<svg width="45" height="30" viewBox="0 0 45 30" fill="none" xmlns="http://www.w3.org/2000/svg">
<g clip-path="url(#clip0_9_23)">
<path d="M44.9007 28.0861C44.6986 28.47 44.5476 28.8955 44.2814 29.2265C43.7999 29.8241 43.1089 29.9981 42.3594 29.9981C37.6243 29.9943 32.891 29.9962 28.1559 29.9962C19.6372 29.9962 11.1166 29.9943 2.5979 29.9981C1.95031 29.9981 1.34615 29.8846 0.840164 29.4516C0.258656 28.9561 -9.21143e-07 28.3187 0.00188709 27.5547C0.00755112 24.6271 0.0037751 21.6996 0.0037751 18.772C0.0037751 13.401 0.0037751 8.02812 0.0037751 2.65713C0.00188709 0.913446 0.908132 0 2.64133 0C15.7781 0 28.9149 0 42.0516 0C43.7188 0 44.2757 0.374456 44.8988 1.91011C44.9007 10.6361 44.9007 19.362 44.9007 28.0861ZM41.9233 28.2431C41.8043 28.0861 41.7364 27.9916 41.6627 27.9008C39.6312 25.3874 37.5997 22.8721 35.5663 20.3587C34.4543 18.9819 33.3385 17.607 32.2302 16.2283C31.7865 15.6761 31.9149 15.0047 32.4964 14.774C32.9024 14.6133 33.2535 14.7475 33.6255 15.209C36.3838 18.6207 39.1422 22.0343 41.9006 25.446C42.2914 25.9283 42.6841 26.4105 43.1203 26.9476C43.1203 18.8779 43.1203 10.8952 43.1203 2.86705C42.9409 2.99943 42.8106 3.09399 42.6822 3.19044C36.803 7.60638 30.9256 12.0242 25.0445 16.4383C23.4113 17.6656 21.5044 17.6713 19.8996 16.4666C13.9864 12.0242 8.07313 7.58179 2.15799 3.14127C2.03905 3.05239 1.91633 2.96917 1.77662 2.87083C1.77662 10.9179 1.77662 18.8949 1.77662 26.9457C1.92199 26.7736 2.01639 26.6639 2.10702 26.5524C4.535 23.5491 6.96109 20.5459 9.38907 17.5427C10.0423 16.7352 10.6899 15.9238 11.3469 15.1201C11.7151 14.67 12.2173 14.5887 12.6157 14.8969C13.0329 15.2203 13.0594 15.7291 12.6818 16.217C12.6459 16.2624 12.6062 16.3078 12.5704 16.3531C9.48159 20.1753 6.3928 23.9974 3.30402 27.8213C3.20206 27.9481 3.10766 28.0804 2.98306 28.2431C15.9933 28.2431 28.9224 28.2431 41.9233 28.2431ZM3.22661 1.7607C3.3701 1.87796 3.44562 1.94226 3.5268 2.00277C9.34376 6.37521 15.1607 10.7477 20.9796 15.1182C21.9066 15.8142 22.9997 15.8104 23.9381 15.1069C29.7343 10.7552 35.5267 6.40169 41.321 2.04627C41.4211 1.97062 41.5155 1.88741 41.6684 1.7607C28.8356 1.7607 16.0783 1.7607 3.22661 1.7607Z" fill="#0075FF"/>
</g>
<defs>
<clipPath id="clip0_9_23">
<rect width="44.9007" height="30" fill="white"/>
</clipPath>
</defs>
</svg>
