<svg width="50" height="50" viewBox="0 0 50 50" fill="none" xmlns="http://www.w3.org/2000/svg">
<path d="M26.9668 46.0989C26.9668 43.5468 26.9668 41.0484 26.9668 38.4761C27.1505 38.4761 27.3387 38.4761 27.5269 38.4761C31.6431 38.4761 35.7593 38.4783 39.8732 38.4761C43.4538 38.4739 45.9768 35.9441 45.9791 32.3568C45.9791 31.3641 45.9791 30.3715 45.9791 29.3789C45.9791 27.4833 45.6676 26.5489 44.5361 25.0431C44.5383 25.0118 44.5271 24.9692 44.5428 24.9513C45.643 23.636 46.0553 22.1101 45.9858 20.4183C45.9477 19.4929 45.9679 18.563 45.9813 17.6354C46.006 16.0759 45.5309 14.6956 44.4935 13.4901C45.1209 12.7126 45.6094 11.879 45.8133 10.9043C45.8625 10.6668 45.941 10.4248 45.941 10.1873C45.9343 8.43286 46.0553 6.66047 45.8626 4.92617C45.5511 2.14323 43.037 0.0168058 40.2294 0.0123244C30.0298 -0.00336043 19.8302 -0.00560235 9.63051 0.0145639C6.53835 0.021286 3.95259 2.63394 3.91002 5.72162C3.89209 7.02346 3.89657 8.32531 3.91002 9.62715C3.92346 11.0814 4.44106 12.3518 5.39336 13.4811C4.59791 14.4178 4.01084 15.4709 3.97051 16.6853C3.91225 18.5182 3.94138 20.3578 4.02653 22.1907C4.0691 23.1027 4.55309 23.8981 5.37095 24.9938C5.30373 25.0879 5.23651 25.1955 5.16032 25.2941C4.34471 26.3427 3.90778 27.5348 3.91002 28.8613C3.91226 30.4208 3.82487 31.9983 4.01309 33.5376C4.35591 36.3519 6.84981 38.4582 9.68429 38.4716C13.9147 38.4895 18.1429 38.4783 22.3733 38.4783C22.5683 38.4783 22.7632 38.4783 22.9985 38.4783C22.9985 41.0036 22.9985 43.5154 22.9985 46.0945C15.3398 46.0945 7.6699 46.0945 0 46.0945C0 47.3963 0 48.6982 0 50C16.6618 50 33.3214 50 49.9832 50C49.9832 48.7183 49.9832 47.4344 49.9832 46.1012C42.2931 46.0989 34.6412 46.0989 26.9668 46.0989ZM7.80882 5.98378C7.81555 4.72675 8.62892 3.91562 9.89267 3.91338C14.9006 3.91114 19.9108 3.91114 24.9188 3.91114C29.8954 3.91114 34.8719 3.91114 39.8485 3.91114C41.3027 3.91114 42.0713 4.67969 42.0735 6.13615C42.0758 7.24305 42.078 8.34771 42.0713 9.45461C42.0646 10.7094 41.249 11.525 39.9874 11.525C29.9536 11.5273 19.9198 11.5273 9.88595 11.525C8.62668 11.525 7.81555 10.7072 7.80882 9.44565C7.80434 8.29394 7.8021 7.13774 7.80882 5.98378ZM7.80882 17.4853C7.81555 16.2574 8.63564 15.4373 9.86354 15.4373C19.9131 15.435 29.9648 15.435 40.0143 15.4373C41.2422 15.4373 42.0623 16.2596 42.0691 17.4875C42.0758 18.6415 42.0735 19.7977 42.0691 20.9516C42.0646 22.24 41.2534 23.0512 39.9628 23.0512C34.9548 23.0534 29.9447 23.0534 24.9367 23.0534C19.9758 23.0534 15.0171 23.0534 10.0562 23.0534C8.56394 23.0534 7.80659 22.296 7.80435 20.806C7.80659 19.6968 7.8021 18.5899 7.80882 17.4853ZM10.0607 34.5706C8.56842 34.5706 7.80882 33.8132 7.80658 32.3254C7.80658 31.2185 7.8021 30.1138 7.80882 29.0069C7.81555 27.779 8.6334 26.9567 9.8613 26.9567C19.9108 26.9544 29.9626 26.9544 40.0121 26.9567C41.2422 26.9567 42.0623 27.7768 42.0691 29.0047C42.0758 30.1586 42.0735 31.3148 42.0691 32.4688C42.0646 33.7572 41.2557 34.5706 39.965 34.5706C34.9571 34.5728 29.9469 34.5728 24.9389 34.5728C19.9825 34.5706 15.0216 34.5706 10.0607 34.5706Z" fill="#1B84FF"/>
<path d="M12.158 9.76834C13.2313 9.78851 14.1298 8.92808 14.15 7.85927C14.1702 6.78374 13.312 5.88746 12.2409 5.86729C11.1654 5.84713 10.2691 6.70531 10.2489 7.77637C10.2288 8.8519 11.087 9.74818 12.158 9.76834Z" fill="#1B84FF"/>
<path d="M19.0526 9.76835C20.1259 9.75939 20.9953 8.87207 20.9841 7.79654C20.9752 6.72101 20.0901 5.8561 19.0145 5.86506C17.9413 5.87402 17.0741 6.7591 17.0831 7.83463C17.092 8.91017 17.9771 9.77956 19.0526 9.76835Z" fill="#1B84FF"/>
<path d="M12.1939 21.29C13.2672 21.2923 14.1477 20.4161 14.15 19.3451C14.1522 18.2696 13.2806 17.3912 12.2051 17.3867C11.1295 17.3845 10.2512 18.2561 10.2489 19.3317C10.2467 20.4072 11.1206 21.2878 12.1939 21.29Z" fill="#1B84FF"/>
<path d="M19.0526 21.29C20.1259 21.281 20.9953 20.3937 20.9864 19.3204C20.9774 18.2449 20.0946 17.3777 19.0168 17.3867C17.9435 17.3956 17.0763 18.2785 17.0853 19.3562C17.092 20.4295 17.9771 21.2989 19.0526 21.29Z" fill="#1B84FF"/>
<path d="M12.1871 28.9083C11.1116 28.9151 10.2422 29.7934 10.2489 30.8712C10.2534 31.9445 11.1363 32.8161 12.2118 32.8116C13.2851 32.8049 14.1567 31.9221 14.15 30.8488C14.1455 29.7733 13.2627 28.9039 12.1871 28.9083Z" fill="#1B84FF"/>
<path d="M19.0392 28.9083C17.9637 28.9061 17.0853 29.7777 17.0831 30.8533C17.0786 31.9288 17.9525 32.8094 19.028 32.8116C20.1013 32.8139 20.9819 31.94 20.9863 30.8667C20.9863 29.7912 20.1147 28.9128 19.0392 28.9083Z" fill="#1B84FF"/>
</svg>
