<svg width="51" height="50" viewBox="0 0 51 50" fill="none" xmlns="http://www.w3.org/2000/svg">
<path d="M44.1546 42.3704C43.7879 42.5614 43.6153 42.4844 43.3564 42.2255C40.7767 39.6273 38.1847 37.0446 35.5989 34.4557C35.4818 34.3386 35.377 34.2153 35.2444 34.0766C37.3156 31.6972 38.4374 28.9357 38.6748 25.8105C39.6672 25.8105 40.5918 25.829 41.5133 25.8013C41.8832 25.789 42.0619 25.8845 42.2099 26.2482C42.8818 27.8971 44.7525 28.6583 46.3891 27.9834C48.0041 27.3177 48.7962 25.4808 48.1705 23.8504C47.7021 22.6237 46.5247 21.8008 45.2179 21.7823C43.8803 21.7638 42.703 22.5497 42.1698 23.7918C42.102 23.949 41.9448 24.1771 41.8215 24.1801C40.786 24.211 39.7473 24.1986 38.6686 24.1986C38.5515 22.6484 38.2279 21.1844 37.6484 19.779C37.0629 18.3612 36.2399 17.0884 35.2506 15.9326C35.3184 15.8494 35.3462 15.8093 35.3801 15.7723C38.0738 13.0786 40.7736 10.388 43.455 7.67889C43.7201 7.41075 43.8896 7.51554 44.1423 7.64191C45.9083 8.53878 48.0596 8.01792 49.2246 6.42142C50.4019 4.80643 50.2262 2.5812 48.8085 1.1727C47.4062 -0.220381 45.2025 -0.392975 43.5968 0.765873C41.991 1.92472 41.4548 4.06982 42.3609 5.83583C42.5396 6.1841 42.5088 6.36594 42.2345 6.63716C39.624 9.22608 37.0289 11.8304 34.4277 14.4286C34.3229 14.5334 34.212 14.632 34.0733 14.7614C31.7032 12.6903 28.9448 11.5592 25.8042 11.3342C25.8042 10.3541 25.8257 9.42949 25.7949 8.50796C25.7795 8.11346 25.9028 7.9347 26.2757 7.7806C27.8291 7.13645 28.5842 5.41051 28.051 3.82018C27.5178 2.22676 25.875 1.32064 24.2477 1.71514C22.8885 2.04492 21.9023 3.18836 21.7883 4.56911C21.6711 5.96836 22.4694 7.25974 23.7731 7.82683C23.9395 7.89772 24.1707 8.07956 24.1768 8.21517C24.2107 9.23532 24.1953 10.2616 24.1953 11.3311C21.0486 11.5592 18.2901 12.6965 15.9108 14.7676C13.1277 11.9845 10.3724 9.23532 7.63244 6.46765C7.53998 6.37519 7.5523 6.12246 7.59237 5.96219C7.73415 5.39818 8.00845 4.84958 8.0516 4.28248C8.19953 2.42709 7.03144 0.762791 5.2716 0.195695C3.5549 -0.359072 1.66561 0.300485 0.670107 1.80144C-0.337721 3.3178 -0.195947 5.35195 1.00913 6.70188C2.25119 8.09805 4.21137 8.48639 5.86643 7.61725C6.22086 7.43233 6.38421 7.51554 6.62461 7.75594C9.22894 10.3726 11.8456 12.9831 14.4561 15.5936C14.5578 15.6953 14.6472 15.8093 14.752 15.9295C12.6839 18.3119 11.559 21.058 11.334 24.1894C10.3662 24.1894 9.4416 24.1709 8.52007 24.1986C8.13789 24.211 7.94064 24.1154 7.78346 23.7332C7.13931 22.1552 5.39488 21.4001 3.78605 21.958C2.20188 22.5066 1.31117 24.1555 1.72108 25.7859C2.06011 27.1327 3.23128 28.119 4.60279 28.2145C5.98971 28.3101 7.25951 27.5242 7.81736 26.2389C7.88825 26.0787 8.0331 25.829 8.1533 25.826C9.20428 25.7951 10.2553 25.8075 11.3371 25.8075C11.4511 27.3762 11.7809 28.8402 12.3634 30.2456C12.9459 31.6479 13.7534 32.9146 14.7365 34.0458C14.7057 34.1136 14.6996 34.1505 14.678 34.1721C11.9504 36.9028 9.22277 39.6366 6.47975 42.3549C6.38421 42.4505 6.13457 42.4505 5.97738 42.4104C5.42878 42.2686 4.89867 42.0005 4.34698 41.945C2.507 41.7663 0.802635 42.919 0.213965 44.6603C-0.371623 46.3893 0.278688 48.3125 1.79197 49.3142C3.3145 50.3251 5.34248 50.1926 6.6955 48.9967C8.09166 47.7608 8.48616 45.7945 7.62936 44.1394C7.45368 43.8004 7.49991 43.6278 7.74956 43.3782C10.3693 40.7739 12.9798 38.1603 15.5903 35.5467C15.692 35.445 15.806 35.3525 15.9324 35.2385C18.3055 37.3096 21.0547 38.4253 24.1953 38.6627C24.1953 39.6058 24.1738 40.5119 24.2046 41.4149C24.2169 41.8279 24.1368 42.0529 23.7022 42.2286C22.4324 42.7371 21.6804 44.0501 21.7883 45.4154C21.893 46.7253 22.83 47.881 24.0905 48.2478C25.4066 48.63 26.8181 48.143 27.6164 47.0335C28.84 45.3322 28.1558 42.9837 26.2079 42.1577C26.0538 42.093 25.8319 41.9265 25.8288 41.8033C25.798 40.7677 25.8103 39.7321 25.8103 38.6596C28.9663 38.4346 31.7063 37.2942 34.0609 35.257C34.1287 35.3001 34.1781 35.3156 34.212 35.3495C36.9334 38.0647 39.6549 40.7831 42.3609 43.5107C42.4564 43.6062 42.4626 43.8559 42.4256 44.01C42.2838 44.5586 42.0126 45.0856 41.9602 45.6404C41.7784 47.4804 42.9156 49.1693 44.6662 49.7796C46.3799 50.3775 48.3092 49.7272 49.3232 48.2139C50.3372 46.7006 50.2108 44.6696 49.015 43.3104C47.776 41.9142 45.8004 41.5105 44.1546 42.3704ZM45.1378 23.3942C46.0193 23.3942 46.7435 24.1062 46.7528 24.9846C46.762 25.8629 46.0532 26.5965 45.1748 26.6119C44.2748 26.6273 43.5351 25.8968 43.5351 24.9969C43.5382 24.1185 44.2625 23.3942 45.1378 23.3942ZM45.9638 1.63501C47.3045 1.64734 48.3863 2.74763 48.3678 4.08523C48.3493 5.39818 47.2582 6.46765 45.9422 6.46148C44.6077 6.45532 43.529 5.35503 43.5382 4.00818C43.5475 2.70448 44.6508 1.62576 45.9638 1.63501ZM4.06652 6.46765C2.72275 6.47073 1.62862 5.38277 1.6317 4.04516C1.63479 2.72913 2.7135 1.64734 4.02953 1.63809C5.36714 1.62884 6.46126 2.71681 6.46434 4.06058C6.46434 5.37044 5.37638 6.46457 4.06652 6.46765ZM4.88326 26.6119C3.9833 26.6242 3.24053 25.8938 3.24361 24.9938C3.24669 24.1154 3.97097 23.3942 4.84627 23.3911C5.72465 23.3881 6.44893 24.1031 6.46126 24.9815C6.47359 25.8568 5.75239 26.5995 4.88326 26.6119ZM4.05419 48.368C2.71042 48.3649 1.62246 47.2708 1.6317 45.9332C1.64095 44.6202 2.72275 43.5415 4.03878 43.5384C5.37638 43.5354 6.46434 44.6295 6.46126 45.9733C6.45818 47.2831 5.36406 48.3711 4.05419 48.368ZM23.3909 4.89581C23.3755 3.99277 24.1029 3.25 24.9997 3.25C25.875 3.25 26.6024 3.96812 26.6086 4.8465C26.6147 5.72488 25.9028 6.45224 25.0244 6.46765C24.1522 6.48306 23.4063 5.76494 23.3909 4.89581ZM26.6086 45.1627C26.5962 46.0441 25.875 46.7561 24.9967 46.7561C24.1183 46.753 23.3971 46.0349 23.3909 45.1565C23.3848 44.2566 24.1275 43.5261 25.0275 43.5384C25.8966 43.5477 26.6209 44.2905 26.6086 45.1627ZM25.0121 37.0877C18.3333 37.0939 12.912 31.6726 12.912 24.9876C12.912 18.3551 18.3179 12.9245 24.935 12.9122C31.6508 12.8999 37.0844 18.3058 37.0875 25.0123C37.0937 31.6603 31.6693 37.0816 25.0121 37.0877ZM45.9884 48.3649C44.6508 48.3834 43.5506 47.3016 43.5382 45.9609C43.5259 44.648 44.6077 43.5477 45.9176 43.5384C47.2613 43.5261 48.3616 44.6079 48.3678 45.9424C48.3709 47.2585 47.3014 48.3495 45.9884 48.3649Z" fill="#1B84FF"/>
<path d="M33.0562 18.6417C33.0469 17.6154 32.3751 16.9528 31.3426 16.9435C30.7385 16.9374 30.1344 16.9435 29.5303 16.9435C25.9213 16.9435 22.3122 16.9405 18.7031 16.9435C17.7323 16.9435 16.9679 17.5168 16.9649 18.389C16.9587 19.7544 17.0604 21.1228 17.1128 22.4912C17.1159 22.5713 17.1005 22.6515 17.0912 22.7316C17.0419 23.0922 16.971 23.4528 16.9464 23.8165C16.8323 25.4068 17.1005 26.9941 16.9556 28.5906C16.8755 29.472 16.9402 30.3689 16.9433 31.2565C16.9464 32.4154 17.5905 33.0564 18.7555 33.0564C20.8205 33.0595 22.8855 33.0564 24.9504 33.0564C27.0832 33.0564 29.2129 33.0595 31.3457 33.0534C32.2734 33.0503 33.0315 32.4616 33.0377 31.6079C33.0439 30.2425 32.9422 28.8741 32.8898 27.5057C32.8867 27.4256 32.9021 27.3454 32.9113 27.2653C32.9607 26.8862 33.0285 26.5102 33.0562 26.128C33.1733 24.587 32.9083 23.0491 33.0439 21.505C33.1271 20.5618 33.0654 19.6003 33.0562 18.6417ZM18.5768 18.5801C22.8577 18.5801 27.1109 18.5801 31.4073 18.5801C31.4073 19.6187 31.4073 20.6636 31.4073 21.7454C27.1479 21.7454 22.8824 21.7454 18.5768 21.7454C18.5768 20.6728 18.5768 19.6403 18.5768 18.5801ZM18.5829 23.4158C22.8608 23.4158 27.114 23.4158 31.4104 23.4158C31.4104 24.4576 31.4104 25.5024 31.4104 26.5811C27.1479 26.5811 22.8824 26.5811 18.5829 26.5811C18.5829 25.5301 18.5829 24.4853 18.5829 23.4158ZM31.4166 31.423C27.1448 31.423 22.8885 31.423 18.5922 31.423C18.5922 30.3843 18.5922 29.3395 18.5922 28.2423C22.8731 28.2423 27.1294 28.2423 31.4166 28.2423C31.4166 29.3087 31.4166 30.3535 31.4166 31.423Z" fill="#1B84FF"/>
<path d="M20.1856 20.9378C22.0749 20.9378 23.9272 20.9378 25.7641 20.9378C25.7641 20.3923 25.7641 19.8838 25.7641 19.3876C23.884 19.3876 22.0471 19.3876 20.1856 19.3876C20.1856 19.9115 20.1856 20.4077 20.1856 20.9378Z" fill="#1B84FF"/>
<path d="M28.2605 20.9316C28.806 20.9316 29.3146 20.9316 29.8262 20.9316C29.8262 20.4077 29.8262 19.9238 29.8262 19.3937C29.2714 19.3937 28.766 19.3937 28.2605 19.3937C28.2605 19.9361 28.2605 20.4416 28.2605 20.9316Z" fill="#1B84FF"/>
<path d="M20.1856 25.7737C22.078 25.7737 23.9272 25.7737 25.7641 25.7737C25.7641 25.2281 25.7641 24.7196 25.7641 24.2234C23.884 24.2234 22.0471 24.2234 20.1856 24.2234C20.1856 24.7473 20.1856 25.2435 20.1856 25.7737Z" fill="#1B84FF"/>
<path d="M28.2544 25.7737C28.7938 25.7737 29.3023 25.7737 29.8108 25.7737C29.8108 25.2405 29.8108 24.7473 29.8108 24.2234C29.2561 24.2234 28.7598 24.2234 28.2544 24.2234C28.2544 24.7597 28.2544 25.2651 28.2544 25.7737Z" fill="#1B84FF"/>
<path d="M25.7795 29.0621C23.9025 29.0621 22.0533 29.0621 20.201 29.0621C20.201 29.6015 20.201 30.11 20.201 30.6247C22.0749 30.6247 23.9118 30.6247 25.7795 30.6247C25.7795 30.07 25.7795 29.5738 25.7795 29.0621Z" fill="#1B84FF"/>
<path d="M29.8077 29.0621C29.2714 29.0621 28.766 29.0621 28.242 29.0621C28.242 29.5892 28.242 30.0854 28.242 30.6032C28.806 30.6032 29.3115 30.6032 29.8077 30.6032C29.8077 30.0669 29.8077 29.5707 29.8077 29.0621Z" fill="#1B84FF"/>
</svg>
