<svg width="41" height="30" viewBox="0 0 41 30" fill="none" xmlns="http://www.w3.org/2000/svg">
<path d="M40.377 8.61944C39.8084 5.33889 37.3084 3.22924 33.9908 3.22924C31.898 3.22924 29.8051 3.23596 27.7123 3.21914C27.5205 3.21914 27.2749 3.11821 27.1437 2.98026C23.3214 -0.996774 17.1168 -0.99342 13.2912 2.99034C13.1667 3.12156 12.9379 3.21914 12.7562 3.21914C10.559 3.23596 8.36187 3.21242 6.16471 3.23598C2.11361 3.27635 -0.840597 7.19617 0.21592 11.1025C0.966249 13.8717 3.4023 15.7458 6.29931 15.7592C8.44263 15.7693 10.5893 15.7593 12.736 15.7694C12.9009 15.7694 13.1128 15.8265 13.2205 15.9376C14.0179 16.7552 14.8995 17.4483 15.9156 17.9732C15.9964 18.0169 16.0839 18.1784 16.0671 18.2626C15.6095 20.2443 15.135 22.2228 14.6572 24.2382C14.3578 24.2382 14.0718 24.2315 13.7858 24.2382C12.2481 24.2719 11.0133 25.4966 10.9796 27.0342C10.9628 27.7846 10.9729 28.5349 10.9763 29.2852C10.9796 29.8101 11.1647 29.9985 11.6862 29.9985C12.5947 30.0019 13.5031 29.9985 14.4116 29.9985C19.176 29.9985 23.9405 29.9985 28.7015 29.9985C29.3038 29.9985 29.4754 29.8269 29.4754 29.228C29.4754 28.4911 29.4855 27.7543 29.4687 27.0174C29.4384 25.6884 28.4929 24.5545 27.1908 24.3088C26.7332 24.2214 26.2554 24.2315 25.7675 24.1978C25.2863 22.1588 24.8052 20.1165 24.3308 18.1078C24.8523 17.778 25.3503 17.5055 25.7978 17.169C26.2587 16.8225 26.6894 16.4288 27.0999 16.025C27.2951 15.8333 27.4801 15.7525 27.7527 15.7525C29.8859 15.7626 32.0157 15.7693 34.149 15.7559C37.0561 15.7391 39.5056 13.8448 40.2391 11.0555C40.3165 10.7661 40.3737 10.47 40.441 10.1773C40.441 9.70284 40.441 9.22843 40.441 8.75738C40.4174 8.71028 40.3838 8.66654 40.377 8.61944ZM11.8578 14.659C10.0039 14.659 8.14653 14.6691 6.29257 14.659C3.35855 14.6388 1.06719 12.2903 1.11766 9.37312C1.1614 6.73522 3.30808 4.45734 5.95274 4.35976C8.0153 4.28574 10.0846 4.34631 12.2313 4.34631C11.2353 5.96808 10.734 7.66723 10.7374 9.51443C10.7407 11.3448 11.2488 13.0305 12.2212 14.6354C12.0563 14.6455 11.9554 14.659 11.8578 14.659ZM26.4404 25.3452C27.6551 25.3452 28.3684 26.0652 28.3751 27.2866C28.3785 27.8081 28.3751 28.3296 28.3751 28.8714C22.931 28.8714 17.5307 28.8714 12.1068 28.8714C12.1068 28.1648 12.0462 27.4649 12.1236 26.7819C12.2178 25.9374 12.9951 25.3485 13.8901 25.3452C15.8248 25.3384 17.7595 25.3418 19.6908 25.3418C21.9385 25.3418 24.1894 25.3418 26.4404 25.3452ZM24.6437 24.2079C21.6928 24.2079 18.7689 24.2079 15.8046 24.2079C16.2555 22.317 16.703 20.4294 17.1606 18.5015C19.2231 19.1643 21.2285 19.1575 23.2877 18.5048C23.7386 20.4092 24.1894 22.2934 24.6437 24.2079ZM20.1484 17.9025C15.6061 17.8857 11.8376 14.0769 11.8376 9.50433C11.8376 4.83417 15.5657 1.10277 20.2359 1.0994C24.8456 1.09604 28.614 4.87456 28.6107 9.49761C28.6073 14.1543 24.8153 17.9194 20.1484 17.9025ZM35.5621 14.4538C35.1348 14.5715 34.6839 14.6455 34.2398 14.6523C32.332 14.6725 30.4242 14.6624 28.5165 14.6624C28.4424 14.6624 28.3684 14.6523 28.2506 14.6422C30.2055 11.2035 30.2156 7.79508 28.2506 4.35976C28.3482 4.35303 28.4222 4.33958 28.4929 4.33958C30.4007 4.33958 32.3085 4.32949 34.2163 4.34294C36.8475 4.36313 38.9538 6.28773 39.307 8.97609C39.62 11.3717 37.9814 13.7876 35.5621 14.4538Z" fill="white"/>
<path d="M20.2359 4.64235C17.5609 4.63562 15.3907 6.79236 15.3739 9.46727C15.3571 12.1455 17.5542 14.3561 20.2292 14.3494C22.8906 14.346 25.0743 12.159 25.0743 9.49419C25.0743 6.82938 22.9041 4.64908 20.2359 4.64235ZM20.1619 13.2491C18.106 13.2121 16.4573 11.5029 16.491 9.44371C16.5246 7.35089 18.2036 5.72577 20.3065 5.75268C22.3523 5.7796 24.0043 7.5023 23.9606 9.5682C23.9135 11.6375 22.2143 13.2828 20.1619 13.2491Z" fill="white"/>
<path d="M32.9747 8.96255C32.3589 8.939 31.7398 8.93563 31.1241 8.96255C30.7944 8.97601 30.6396 9.22164 30.6598 9.53792C30.68 9.83401 30.8448 10.0291 31.1611 10.0359C31.4505 10.0426 31.7398 10.0359 32.0292 10.0359C32.332 10.0359 32.6348 10.0426 32.9343 10.0325C33.2506 10.0224 33.4155 9.83737 33.4323 9.53455C33.4558 9.2149 33.3078 8.97601 32.9747 8.96255Z" fill="white"/>
<path d="M37.3589 8.97281C36.7162 8.93916 36.0702 8.93915 35.4309 8.96607C35.1247 8.97953 34.98 9.2218 34.9969 9.52461C35.0137 9.82743 35.1752 10.0192 35.4915 10.0293C35.7808 10.0394 36.0702 10.0327 36.3596 10.0327C36.3596 10.0327 36.3596 10.0327 36.3596 10.0293C36.6759 10.0293 36.9921 10.0394 37.3051 10.0259C37.6012 10.0125 37.7559 9.82743 37.7761 9.54143C37.7929 9.24534 37.6718 8.98963 37.3589 8.97281Z" fill="white"/>
<path d="M9.33428 8.96261C8.70508 8.93906 8.07252 8.93906 7.44332 8.96261C7.12703 8.97607 6.99245 9.21833 7.00254 9.51442C7.01263 9.81388 7.16741 10.0158 7.48706 10.0292C7.77642 10.0393 8.06577 10.0326 8.35514 10.0326C8.35514 10.0326 8.35514 10.0326 8.35514 10.0359C8.65796 10.0359 8.96079 10.0393 9.26361 10.0359C9.60345 10.0292 9.77504 9.82733 9.78514 9.51442C9.79523 9.21497 9.64383 8.97607 9.33428 8.96261Z" fill="white"/>
<path d="M4.98037 8.95928C4.36462 8.93573 3.74552 8.93573 3.12978 8.96265C2.80004 8.97611 2.65197 9.21837 2.67216 9.53801C2.69235 9.8442 2.8606 10.0225 3.17352 10.0326C3.46289 10.0427 3.75224 10.036 4.0416 10.0326C4.34442 10.0326 4.64725 10.0394 4.94671 10.0293C5.26299 10.0192 5.42787 9.82736 5.4447 9.52791C5.46825 9.21163 5.30674 8.97274 4.98037 8.95928Z" fill="white"/>
</svg>
