<svg width="31" height="34" viewBox="0 0 31 34" fill="none" xmlns="http://www.w3.org/2000/svg">
<path d="M4.32919 10.102C5.67245 10.8763 7.01864 11.6535 8.42643 12.4659C8.42643 11.9644 8.45577 11.5215 8.42058 11.0816C8.35899 10.3308 8.72559 9.84102 9.3239 9.47148C10.1686 8.94943 11.1071 8.69134 12.072 8.54176C12.9753 8.40098 13.8875 8.31886 14.8143 8.21035C14.8143 6.95215 14.8143 5.67049 14.8143 4.35951C14.1544 4.163 13.6235 3.77587 13.3185 3.12477C13.0985 2.64965 13.0545 2.15693 13.1836 1.64954C13.4329 0.661172 14.3685 -0.033916 15.4067 0.00127826C16.442 0.0364726 17.3043 0.804882 17.492 1.86364C17.6827 2.94294 17.0814 3.84626 15.8085 4.37417C15.8085 5.6529 15.8085 6.93456 15.8085 8.23968C16.4186 8.29247 17.0198 8.3306 17.6211 8.40098C18.7502 8.53296 19.8677 8.74413 20.8971 9.25151C21.2021 9.40109 21.4866 9.60639 21.7476 9.82635C22.0703 10.0962 22.2198 10.4599 22.2081 10.8939C22.1934 11.3954 22.2052 11.8999 22.2052 12.4718C23.6071 11.6623 24.9621 10.8822 26.235 10.146C26.2702 9.64745 26.2408 9.20459 26.3435 8.79399C26.584 7.86427 27.4551 7.23664 28.4141 7.23077C29.3966 7.22491 30.2472 7.84374 30.5375 8.78226C30.822 9.70024 30.4789 10.6974 29.687 11.24C28.8775 11.7943 27.8129 11.7679 27.065 11.1432C26.8655 10.976 26.7365 10.9555 26.5107 11.0904C25.1674 11.8823 23.8183 12.6595 22.4633 13.4308C22.2697 13.5423 22.1993 13.6625 22.2022 13.8884C22.211 15.9648 22.214 18.0413 22.2022 20.1178C22.2022 20.3612 22.2873 20.4785 22.4897 20.5929C23.8447 21.3642 25.1938 22.1444 26.54 22.9304C26.7336 23.0447 26.8509 23.0565 27.0386 22.8952C27.8011 22.2441 28.8628 22.203 29.687 22.7661C30.4965 23.3204 30.8425 24.3587 30.5258 25.2884C30.212 26.2152 29.3145 26.8193 28.3203 26.7753C27.3524 26.7314 26.4931 26.0275 26.3024 25.0538C26.232 24.693 26.2907 24.3059 26.2907 23.8923C24.968 23.1298 23.6159 22.3467 22.211 21.5373C22.211 22.0857 22.1934 22.5667 22.2169 23.0418C22.2433 23.602 22.0028 24.0155 21.5805 24.3411C20.8824 24.8778 20.0671 25.1652 19.2195 25.3206C18.1079 25.523 16.9817 25.655 15.8291 25.8222C15.8291 27.0481 15.8291 28.3386 15.8291 29.629C17.1371 30.1833 17.7179 31.1013 17.4774 32.2334C17.2515 33.301 16.3306 34.0312 15.2454 33.999C14.1954 33.9696 13.3185 33.1836 13.1425 32.1161C12.9636 31.0339 13.5971 30.0924 14.8231 29.6378C14.8231 28.3503 14.8231 27.0598 14.8231 25.787C13.8963 25.6785 12.9842 25.5963 12.0808 25.4556C11.1276 25.306 10.1979 25.0508 9.35909 24.5434C8.73438 24.1651 8.35604 23.6606 8.42643 22.8805C8.46456 22.4611 8.4323 22.0329 8.4323 21.5343C7.03625 22.3379 5.68418 23.1181 4.39958 23.8572C4.36731 24.3411 4.40252 24.7839 4.29693 25.1945C4.05643 26.1418 3.17656 26.7724 2.20284 26.7724C1.22619 26.7724 0.381514 26.1418 0.09409 25.2004C-0.184535 24.2853 0.170337 23.2852 0.965151 22.7515C1.78343 22.203 2.83927 22.2382 3.58716 22.8746C3.78366 23.0418 3.90684 23.0389 4.11508 22.9186C5.45834 22.1297 6.81042 21.3525 8.16248 20.5811C8.35019 20.4756 8.44111 20.367 8.43818 20.1324C8.42644 18.0442 8.42644 15.956 8.43818 13.8678C8.43818 13.6361 8.35606 13.5247 8.16542 13.4162C6.80162 12.639 5.44075 11.8559 4.08575 11.064C3.90098 10.9555 3.78954 10.9496 3.6165 11.0992C2.85395 11.7532 1.79516 11.8002 0.968087 11.2459C0.155675 10.7003 -0.1992 9.66211 0.111687 8.72947C0.41964 7.79975 1.30537 7.19265 2.30549 7.22491C3.25868 7.25717 4.11215 7.93173 4.32332 8.89957C4.39664 9.26911 4.32919 9.66798 4.32919 10.102ZM21.2402 16.393C17.2662 17.8272 13.339 17.8272 9.39137 16.3901C9.39137 17.182 9.40309 18.0178 9.38549 18.8537C9.37963 19.1587 9.48815 19.3787 9.73745 19.5048C10.1774 19.7218 10.6173 19.9623 11.0866 20.0914C13.6792 20.804 16.2983 20.8128 18.9174 20.2527C19.5802 20.1119 20.2108 19.8127 20.8355 19.5341C21.0115 19.4549 21.2168 19.2056 21.2256 19.0267C21.2608 18.1351 21.2402 17.2406 21.2402 16.393ZM21.2402 20.5372C17.272 21.9831 13.3478 21.9743 9.39137 20.5372C9.39137 21.3378 9.40016 22.1825 9.38549 23.0272C9.37963 23.2999 9.47055 23.5111 9.70225 23.6255C10.1305 23.8396 10.5528 24.0888 11.0103 24.2179C13.5414 24.9335 16.1047 24.9599 18.671 24.4496C19.4131 24.3029 20.1228 23.9803 20.8267 23.687C21.0086 23.6108 21.2168 23.341 21.2256 23.1503C21.2637 22.2705 21.2402 21.3877 21.2402 20.5372ZM9.39137 12.2489C9.39137 13.032 9.40602 13.8649 9.38256 14.6949C9.37376 15.0175 9.49401 15.2433 9.75504 15.3695C10.2038 15.5894 10.6584 15.8299 11.1364 15.959C13.6939 16.6452 16.2807 16.654 18.8617 16.1173C19.5245 15.9795 20.158 15.6862 20.7857 15.4193C20.9704 15.3401 21.208 15.1084 21.2168 14.9354C21.2608 14.0262 21.2373 13.1141 21.2373 12.2518C17.2779 13.6801 13.3537 13.6743 9.39137 12.2489ZM15.3305 9.21632C15.3275 9.18699 15.3217 9.15766 15.3187 9.13127C14.1514 9.27498 12.9753 9.38936 11.8139 9.57706C11.0455 9.70024 10.2947 9.93487 9.65238 10.41C9.30337 10.6681 9.28578 10.9174 9.64946 11.1403C10.063 11.3954 10.5117 11.633 10.9751 11.765C13.6646 12.5275 16.3834 12.5334 19.0963 11.9145C19.7327 11.7708 20.3457 11.4776 20.9294 11.1755C21.3634 10.9496 21.3458 10.6622 20.9411 10.3924C20.6478 10.1988 20.3252 10.0346 19.9967 9.91434C18.4892 9.3571 16.9172 9.24272 15.3305 9.21632ZM16.5535 2.20386C16.5564 1.5205 15.9962 0.960323 15.3129 0.960323C14.6412 0.963256 14.0899 1.50583 14.0781 2.17453C14.0664 2.86082 14.6178 3.42686 15.3011 3.43566C15.9845 3.44445 16.5506 2.88721 16.5535 2.20386ZM15.3011 33.0399C15.9845 33.0487 16.5506 32.4915 16.5535 31.8081C16.5564 31.1365 16.0168 30.5793 15.3481 30.5646C14.6618 30.547 14.0899 31.0954 14.0781 31.7788C14.0664 32.4622 14.6178 33.0311 15.3011 33.0399ZM2.17937 8.18982C1.50774 8.19569 0.956359 8.75 0.953426 9.42162C0.953426 10.105 1.52535 10.671 2.20578 10.6622C2.88034 10.6534 3.42292 10.105 3.42292 9.42749C3.42585 8.7324 2.87447 8.18395 2.17937 8.18982ZM27.2058 9.42455C27.2058 10.1167 27.7659 10.671 28.4552 10.6622C29.1239 10.6534 29.6753 10.0962 29.6753 9.42162C29.6753 8.73533 29.1121 8.17809 28.42 8.18689C27.7425 8.19568 27.2058 8.74413 27.2058 9.42455ZM3.42585 24.5786C3.42879 23.8865 2.87154 23.3292 2.18231 23.3351C1.51361 23.341 0.959294 23.8982 0.956361 24.5698C0.953429 25.2561 1.51946 25.8163 2.20869 25.8104C2.88326 25.8075 3.42292 25.262 3.42585 24.5786ZM28.4405 25.8104C29.118 25.8075 29.6664 25.262 29.6723 24.5874C29.6811 23.9041 29.1151 23.3322 28.4288 23.3351C27.7395 23.338 27.1911 23.9041 27.2028 24.5962C27.2146 25.2767 27.763 25.8163 28.4405 25.8104Z" fill="white"/>
</svg>
