<svg width="35" height="30" viewBox="0 0 35 30" fill="none" xmlns="http://www.w3.org/2000/svg">
<path d="M0 7.29741C1.51885 5.47373 3.03767 3.65005 4.55652 1.82637C4.97468 1.32459 5.39283 0.825509 5.80289 0.318332C5.97825 0.0998147 6.186 0 6.46927 0C13.6831 0.0053955 20.897 0.0053955 28.1109 0C28.3968 0 28.5991 0.105209 28.7772 0.321029C30.6468 2.57095 32.5217 4.81818 34.394 7.06271C34.6557 7.37834 34.6611 7.61574 34.394 7.96645C32.3329 10.6669 30.2718 13.3646 28.2107 16.0651C24.7656 20.5784 21.3205 25.0944 17.8782 29.6078C17.4843 30.1257 17.1012 30.1311 16.7154 29.6213C11.1769 22.3616 5.63836 15.1047 0.0971161 7.84505C0.0728361 7.81268 0.0323734 7.79379 0 7.76681C0 7.61304 0 7.45388 0 7.29741ZM11.1715 8.11213C13.2083 14.557 15.229 20.9615 17.2523 27.3633C17.2793 27.3606 17.3062 27.3579 17.3359 27.3552C19.3592 20.9507 21.3799 14.5463 23.4113 8.11213C19.3134 8.11213 15.2748 8.11213 11.1715 8.11213ZM1.77513 8.10673C6.4234 14.1982 11.0231 20.225 15.6255 26.2545C15.6417 26.125 15.6201 26.0171 15.5877 25.9119C14.4628 22.3427 13.3351 18.7763 12.2075 15.2072C11.4898 12.9357 10.7722 10.6642 10.0546 8.39269C10.0087 8.24971 10.0007 8.09864 9.76595 8.09864C7.13022 8.10943 4.49449 8.10673 1.77513 8.10673ZM32.8077 8.10673C30.1315 8.10673 27.5416 8.11213 24.9545 8.09864C24.6928 8.09864 24.5903 8.18227 24.5147 8.42237C22.9284 13.4699 21.3313 18.5173 19.7369 23.5621C19.4564 24.4497 19.1812 25.3372 18.9033 26.2221C18.9222 26.2329 18.9411 26.241 18.9573 26.2518C23.557 20.225 28.1594 14.1956 32.8077 8.10673ZM17.3278 1.53772C15.5446 3.32093 13.7398 5.12302 11.9781 6.88195C15.4933 6.88195 19.0976 6.88195 22.6721 6.88195C20.8754 5.08256 19.0733 3.28046 17.3278 1.53772ZM7.35682 1.18701C8.41974 3.00529 9.45031 4.77502 10.4404 6.4719C12.2155 4.69678 13.9826 2.92975 15.7253 1.18701C13.0006 1.18701 10.2165 1.18701 7.35682 1.18701ZM27.2152 1.20319C24.3609 1.20319 21.5714 1.20319 18.8467 1.20319C20.5975 2.95403 22.3646 4.71836 24.1343 6.48808C25.1379 4.76153 26.1684 2.99989 27.2152 1.20319ZM6.25614 1.58897C4.78045 3.3587 3.33175 5.09874 1.84527 6.87925C4.37579 6.87925 6.83344 6.87925 9.34238 6.87925C8.30643 5.10413 7.28939 3.36139 6.25614 1.58897ZM25.2404 6.87925C27.752 6.87925 30.207 6.87925 32.7349 6.87925C31.2484 5.09604 29.7997 3.356 28.3267 1.58897C27.2907 3.36139 26.2791 5.09604 25.2404 6.87925Z" fill="white"/>
</svg>
