<svg width="42" height="30" viewBox="0 0 42 30" fill="none" xmlns="http://www.w3.org/2000/svg">
<path d="M39.6327 7.65542C33.9052 5.22811 28.1756 2.80297 22.446 0.377832C21.267 -0.120856 20.0803 -0.128445 18.9001 0.370243C13.1445 2.80297 7.38892 5.2357 1.63765 7.6771C0.591866 8.1205 0.0370069 8.94009 0.00124436 10.0751C-0.0323508 11.1321 0.616793 12.0731 1.64632 12.51C7.38784 14.9417 13.1272 17.3766 18.8763 19.7898C19.4268 20.0207 20.037 20.1074 20.6471 20.2679C21.2507 20.1129 21.8641 20.0337 22.4135 19.8028C28.1626 17.3896 33.902 14.9536 39.6424 12.5198C40.7045 12.0699 41.3016 11.2568 41.307 10.1044C41.3135 8.93467 40.712 8.11291 39.6327 7.65542Z" fill="white"/>
<path d="M33.6441 16.9591C33.4772 17.0231 33.3536 17.0653 33.2333 17.1163C29.863 18.5397 26.4926 19.9621 23.1234 21.3877C21.4523 22.0945 19.7909 22.0685 18.1253 21.3606C14.9695 20.0184 11.8116 18.6839 8.65361 17.3472C8.34692 17.2171 8.03697 17.0957 7.69886 16.958C7.6891 17.0859 7.67827 17.1629 7.67827 17.241C7.67718 19.3105 7.65117 21.3801 7.68694 23.4496C7.71403 25.027 8.4347 26.2607 9.79585 27.0629C12.7219 28.7867 15.895 29.7494 19.2794 29.9564C23.5688 30.2188 27.6013 29.2962 31.3488 27.1724C32.8703 26.3106 33.6343 24.9966 33.6419 23.2512C33.6495 21.2901 33.6441 19.3289 33.6441 17.3667C33.6441 17.2475 33.6441 17.1293 33.6441 16.9591Z" fill="white"/>
<path d="M38.4189 21.7993C38.4688 21.7342 38.4904 21.7006 38.5175 21.6735C39.6468 20.5352 39.4939 19.0467 38.1718 18.1545C38.0591 18.0786 37.9778 17.8759 37.9746 17.7306C37.9562 16.8807 37.9659 16.0297 37.9659 15.1104C37.4024 15.3489 36.9028 15.5483 36.4173 15.7782C36.3295 15.8194 36.2526 15.9798 36.2493 16.0871C36.232 16.627 36.2298 17.168 36.2471 17.7089C36.2547 17.9507 36.1854 18.0873 35.9675 18.2217C34.8795 18.8971 34.6172 20.3151 35.3769 21.3277C35.4961 21.486 35.6403 21.6269 35.7844 21.7895C35.2642 22.2492 34.9532 22.7988 34.9456 23.4894C34.9391 24.1919 34.9369 24.8955 34.9456 25.598C34.9521 26.1693 35.2729 26.5238 35.8386 26.5379C36.6763 26.5596 37.514 26.5574 38.3517 26.5401C38.9283 26.5281 39.2469 26.191 39.2599 25.6186C39.2718 25.1047 39.2436 24.5908 39.2675 24.0781C39.3097 23.1913 39.1808 22.3771 38.4189 21.7993Z" fill="white"/>
</svg>
