<svg width="8" height="15" viewBox="0 0 8 15" fill="none" xmlns="http://www.w3.org/2000/svg">
<path d="M6.67684 0.0098253C5.91624 0.00267122 5.15565 -0.00926447 4.39743 0.0121978C2.99472 0.0503528 1.90478 0.877846 1.57306 2.1632C1.49013 2.48274 1.48065 2.82376 1.47117 3.15524C1.45459 3.63933 1.46643 4.12342 1.46643 4.63136C1.15366 4.63136 0.878806 4.62898 0.60632 4.63136C0.205884 4.63613 0.00685573 4.82691 0.00448629 5.22753C-0.00262205 5.87855 -0.000252604 6.52957 0.00448629 7.17821C0.00685573 7.59315 0.205888 7.78154 0.62528 7.7863C0.890657 7.78869 1.15603 7.7863 1.46643 7.7863C1.46643 7.93654 1.46643 8.04862 1.46643 8.16309C1.46643 10.1996 1.46643 12.2385 1.46643 14.275C1.46643 14.8498 1.61571 14.9976 2.19622 15C2.89995 15 3.60367 15 4.30503 15C4.89265 15 5.04666 14.8426 5.04666 14.2488C5.04666 12.2123 5.04666 10.1734 5.04666 8.13685C5.04666 8.02715 5.04666 7.91746 5.04666 7.7863C5.56557 7.7863 6.03946 7.79107 6.51098 7.78392C6.84981 7.77915 7.03936 7.59791 7.07017 7.26167C7.1294 6.63449 7.18864 6.00494 7.23366 5.37538C7.27394 4.80306 7.10571 4.62897 6.54178 4.62897C6.05131 4.62897 5.56083 4.62897 5.04666 4.62897C5.04666 4.24742 5.04192 3.90402 5.04903 3.56062C5.05377 3.25538 5.13907 3.16954 5.44473 3.16477C5.85227 3.15761 6.26218 3.16715 6.66973 3.16238C7.09623 3.15523 7.28342 2.97161 7.28816 2.5519C7.2929 1.91042 7.2929 1.26894 7.28816 0.62984C7.28579 0.207749 7.0986 0.01221 6.67684 0.0098253Z" fill="white"/>
</svg>
