<svg width="30" height="30" viewBox="0 0 30 30" fill="none" xmlns="http://www.w3.org/2000/svg">
<path d="M29.9204 13.8124C29.8265 13.1666 29.7732 12.5119 29.635 11.8762C28.8524 8.27533 27.0044 5.3228 24.072 3.1011C20.4242 0.336349 16.3172 -0.581004 11.8386 0.354113C8.25297 1.10271 5.33828 2.98183 3.10978 5.88234C0.702428 9.01251 -0.299576 12.5779 0.0771268 16.5023C0.382802 19.682 1.61565 22.4899 3.73381 24.8867C6.05491 27.5144 8.94677 29.1499 12.403 29.7665C12.9675 29.8668 13.5395 29.9239 14.1077 30C14.6937 30 15.2784 30 15.8644 30C16.4326 29.9239 17.0047 29.8668 17.5678 29.7665C20.9708 29.1639 23.831 27.5639 26.1381 25.0009C28.3121 22.5876 29.5437 19.7404 29.9026 16.5138C29.9254 16.3031 29.9508 16.0925 29.9749 15.8819C29.9749 15.2957 29.9749 14.7108 29.9749 14.1246C29.9571 14.0193 29.9356 13.9165 29.9204 13.8124ZM14.9702 28.3708C7.58328 28.3518 1.62072 22.3719 1.62453 14.9861C1.62833 7.61174 7.62894 1.62039 15.0006 1.63308C22.38 1.64577 28.3565 7.64092 28.3476 15.0191C28.3375 22.3985 22.3368 28.3886 14.9702 28.3708Z" fill="white"/>
<path d="M14.9778 21.6716C12.2191 21.6741 10.0972 20.4015 8.5041 18.1709C8.0551 18.4615 7.61625 18.7457 7.1774 19.0299C8.64109 21.4292 11.7372 23.4149 15.1364 23.302C18.3948 23.1941 20.9378 21.7401 22.8264 19.0515C22.3457 18.7406 21.9056 18.4564 21.468 18.1722C19.8711 20.4192 17.734 21.6678 14.9778 21.6716Z" fill="white"/>
<path d="M21.794 10.4513C20.5929 9.76108 19.3841 9.79027 18.2413 10.5744C17.3484 11.186 16.9349 12.0754 16.9159 13.1805C17.2178 13.1805 17.479 13.1805 17.7416 13.1805C18.0003 13.1805 18.2591 13.1805 18.509 13.1805C18.7081 12.1807 19.1748 11.6465 19.9422 11.6237C20.2758 11.6136 20.6436 11.6998 20.9429 11.8496C21.4604 12.1084 21.6532 12.6172 21.7001 13.1666C22.2468 13.1666 22.7605 13.1666 23.2729 13.1666C23.3998 12.2162 22.758 11.0045 21.794 10.4513Z" fill="white"/>
<path d="M9.78642 11.6046C10.6705 11.5704 11.1626 12.0233 11.4721 13.1665C11.9896 13.1665 12.5109 13.1665 13.0296 13.1665C13.1463 12.1743 12.4931 10.9765 11.4936 10.4221C10.2811 9.7496 9.0736 9.80797 7.94476 10.6124C7.08355 11.2265 6.68909 12.1033 6.66879 13.1589C7.23448 13.1589 7.75451 13.1589 8.26946 13.1589C8.45337 12.1591 8.97087 11.6363 9.78642 11.6046Z" fill="white"/>
</svg>
