<svg width="15" height="15" viewBox="0 0 15 15" fill="none" xmlns="http://www.w3.org/2000/svg">
<path d="M11.525 2.70654C11.0049 2.70654 10.585 3.1292 10.585 3.65262C10.585 4.17604 11.0049 4.59869 11.525 4.59869C12.0451 4.59869 12.465 4.17604 12.465 3.65262C12.465 3.1292 12.0451 2.70654 11.525 2.70654Z" fill="white"/>
<path d="M7.45066 3.75928C5.40096 3.75928 3.73228 5.4387 3.73228 7.50158C3.73228 9.56447 5.40096 11.2439 7.45066 11.2439C9.50035 11.2439 11.169 9.56447 11.169 7.50158C11.169 5.4387 9.50035 3.75928 7.45066 3.75928ZM7.45066 9.56447C6.32152 9.56447 5.40096 8.63799 5.40096 7.50158C5.40096 6.36518 6.32152 5.4387 7.45066 5.4387C8.5798 5.4387 9.50035 6.36518 9.50035 7.50158C9.50035 8.63799 8.58258 9.56447 7.45066 9.56447Z" fill="white"/>
<path d="M11.2441 0H3.65997C1.64087 0 0 1.65143 0 3.68352V11.3165C0 13.3486 1.64087 15 3.65997 15H11.2441C13.2632 15 14.9041 13.3486 14.9041 11.3165V3.68352C14.9041 1.65423 13.2604 0 11.2441 0ZM13.2354 11.3165C13.2354 12.4221 12.3427 13.3206 11.2441 13.3206H3.65997C2.56142 13.3206 1.66868 12.4221 1.66868 11.3165V3.68352C1.66868 2.57791 2.56142 1.67942 3.65997 1.67942H11.2441C12.3427 1.67942 13.2354 2.57791 13.2354 3.68352V11.3165Z" fill="white"/>
</svg>
