<svg width="16" height="15" viewBox="0 0 16 15" fill="none" xmlns="http://www.w3.org/2000/svg">
<path d="M1.89831 1.6142e-05C0.782468 -0.00393122 0.00196106 0.716463 0 1.7487C0 2.77501 0.778544 3.50528 1.86497 3.50133C2.96121 3.49738 3.7574 2.76712 3.75936 1.76449C3.76132 0.742121 2.98082 0.00396351 1.89831 1.6142e-05Z" fill="white"/>
<path d="M3.28283 4.87311C2.38859 4.88297 1.49434 4.87705 0.600098 4.87705C0.476551 4.87705 0.353004 4.87705 0.207886 4.87705C0.207886 8.27771 0.207886 11.6369 0.207886 14.9922C1.32373 14.9922 2.41996 14.9922 3.53973 14.9922C3.53973 14.8678 3.53973 14.7632 3.53973 14.6566C3.53973 11.5797 3.53973 8.50271 3.53973 5.42574C3.53973 5.32705 3.52993 5.22639 3.54169 5.12968C3.56915 4.9185 3.47698 4.87113 3.28283 4.87311Z" fill="white"/>
<path d="M15.5159 8.10197C15.2728 6.13026 14.1 4.89079 12.2096 4.67368C10.8427 4.51579 9.68569 4.93223 8.86989 6.11249C8.84243 6.15197 8.80517 6.18355 8.72281 6.27434C8.72281 5.77302 8.72281 5.33881 8.72281 4.89671C7.59324 4.89671 6.49897 4.89671 5.40273 4.89671C5.40273 8.27565 5.40273 11.6329 5.40273 14.9921C6.51662 14.9921 7.61089 14.9921 8.7287 14.9921C8.7287 14.8697 8.7287 14.7631 8.7287 14.6566C8.7287 13.2809 8.72674 11.9033 8.7287 10.5276C8.7287 10.0243 8.7287 9.51907 8.75027 9.01775C8.77772 8.40789 9.08364 7.94012 9.56803 7.60065C10.5329 6.92565 11.7781 7.35591 12.0978 8.49078C12.2037 8.86578 12.239 9.27039 12.241 9.66118C12.2566 11.3428 12.2468 13.0263 12.2468 14.7079C12.2468 14.8026 12.2468 14.8974 12.2468 15C13.3725 15 14.4589 15 15.5767 15C15.5826 14.9052 15.5885 14.8342 15.5885 14.7631C15.5885 12.9099 15.5924 11.0566 15.5846 9.20328C15.5885 8.83618 15.561 8.4671 15.5159 8.10197Z" fill="white"/>
</svg>
