<svg width="32" height="35" viewBox="0 0 32 35" fill="none" xmlns="http://www.w3.org/2000/svg">
<path d="M31.7786 8.21008C31.7764 7.07863 31.0447 6.08043 29.9569 5.68289C28.1003 5.00359 26.8377 3.74109 26.1497 1.88884C25.6976 0.670021 24.7234 0.00163819 23.4281 0.00163819C18.4042 -0.000546064 13.3826 -0.000546064 8.35871 0.00163819C7.06343 0.00163819 6.08924 0.672207 5.63709 1.89102C4.95341 3.73017 3.69963 4.9883 1.86265 5.67852C0.66566 6.1263 0.0038225 7.10484 0.00163821 8.38482C-0.000546071 9.6495 -0.000546071 10.9142 0.00163821 12.1767C0.00600678 14.1316 0.191671 16.069 0.694056 17.9584C2.83684 26.0336 7.67503 31.7935 15.4511 35C15.7481 35 16.043 35 16.3401 35C16.6677 34.8777 17.0019 34.7728 17.3186 34.6265C22.3534 32.3199 26.1956 28.7268 28.8385 23.8668C30.5598 20.7018 31.5471 17.3119 31.7196 13.71C31.8026 11.8796 31.7808 10.0427 31.7786 8.21008ZM29.6664 13.6227C29.4589 17.5238 28.2532 21.1169 26.141 24.3976C23.723 28.1545 20.4662 30.9482 16.3969 32.7961C16.0474 32.9555 15.7394 32.9599 15.3899 32.7961C8.3041 29.4389 3.99232 23.9062 2.41964 16.2372C2.13131 14.8284 2.03957 13.3955 2.04831 11.9561C2.05486 10.7831 2.04831 9.61019 2.0505 8.43724C2.0505 7.93923 2.18811 7.74702 2.65336 7.56791C5.00583 6.65926 6.63531 5.03198 7.52868 2.6708C7.71216 2.18371 7.90438 2.05047 8.42205 2.05047C10.9165 2.05047 13.411 2.05047 15.9054 2.05047C18.378 2.05047 20.8484 2.05047 23.3211 2.05047C23.8911 2.05047 24.0637 2.17279 24.2647 2.69701C25.1537 5.01451 26.746 6.63523 29.0657 7.53296C29.6096 7.74483 29.7407 7.92175 29.7341 8.50058C29.7188 10.2065 29.756 11.9189 29.6664 13.6227Z" fill="white"/>
<path d="M20.759 13.3452C20.5733 13.3059 20.3811 13.2928 20.1714 13.2666C20.1714 12.24 20.1867 11.2374 20.1692 10.2349C20.1277 7.99163 18.2449 6.12191 16.0016 6.08477C13.5836 6.04327 11.6352 7.9414 11.6134 10.3616C11.6046 11.3183 11.6112 12.2728 11.6112 13.2666C11.4736 13.2863 11.3753 13.3016 11.2748 13.3125C10.0625 13.4414 9.10364 14.4177 9.08835 15.6322C9.06214 17.7509 9.04029 19.8696 9.09709 21.9884C9.15825 24.2512 11.1634 26.1996 13.4285 26.2455C15.0689 26.2782 16.7093 26.2782 18.3497 26.2455C20.6323 26.1996 22.6331 24.2491 22.6943 21.9643C22.7489 19.8587 22.727 17.7509 22.703 15.6431C22.6877 14.5204 21.8533 13.5724 20.759 13.3452ZM13.6644 10.3747C13.6797 9.11653 14.6648 8.13579 15.8946 8.13579C17.1265 8.13798 18.1051 9.11652 18.1204 10.379C18.1313 11.3008 18.1225 12.2225 18.1204 13.1443C18.1204 13.1771 18.1073 13.2076 18.092 13.2754C16.6176 13.2754 15.165 13.2754 13.6928 13.2754C13.6819 13.188 13.6644 13.1115 13.6644 13.0373C13.6601 12.1483 13.6535 11.2615 13.6644 10.3747ZM20.6607 21.4969C20.6563 23.1526 19.6013 24.2032 17.9478 24.2054C16.5586 24.2076 15.1694 24.2076 13.7802 24.2054C12.2119 24.201 11.1328 23.1416 11.1241 21.5777C11.1132 19.6992 11.1197 17.8186 11.1219 15.9401C11.1219 15.4552 11.2355 15.3417 11.7335 15.3417C13.1227 15.3395 14.5119 15.3417 15.9011 15.3417C17.2685 15.3417 18.6337 15.3417 20.001 15.3417C20.5646 15.3417 20.6607 15.4378 20.6607 15.9969C20.6629 17.8295 20.6651 19.6621 20.6607 21.4969Z" fill="white"/>
<path d="M15.8967 17.7815C15.331 17.7772 14.8941 18.2184 14.8701 18.8343C14.857 19.1511 14.8679 19.47 14.8679 19.7889C14.8679 20.1078 14.857 20.4267 14.8701 20.7434C14.8985 21.3419 15.3266 21.7678 15.8858 21.77C16.445 21.7722 16.8906 21.3528 16.9102 20.7543C16.9299 20.1078 16.9299 19.459 16.9102 18.8125C16.8927 18.214 16.4537 17.7837 15.8967 17.7815Z" fill="white"/>
</svg>
