<svg width="18" height="15" viewBox="0 0 18 15" fill="none" xmlns="http://www.w3.org/2000/svg">
<path d="M17.9371 1.86819C17.6456 1.96014 17.3541 2.07398 17.0539 2.14403C16.7581 2.21847 16.4623 2.34107 16.1099 2.30167C17.1453 1.30337 17.4672 0.843619 17.4759 0.34885C16.8495 0.694751 16.2012 0.95746 15.5182 1.12822C15.3224 1.17638 15.1702 1.16325 15.0005 1.01001C13.8302 -0.0539671 12.2336 -0.29478 10.8545 0.37075C9.44493 1.04942 8.64443 2.45053 8.73144 4.08809C8.7619 4.66605 8.7619 4.66167 8.16588 4.58724C5.42072 4.24134 3.12366 3.03288 1.29645 0.93558C1.10503 0.712276 1.03977 0.751672 0.926655 0.992489C0.230576 2.46804 0.591667 4.28073 1.81851 5.39725C1.90987 5.48044 2.04908 5.52424 2.06649 5.695C1.63144 5.70813 1.23554 5.58553 0.861398 5.40602C0.609069 5.2878 0.522059 5.31407 0.561214 5.6118C0.761337 7.22747 1.61403 8.31771 3.12366 8.89129C3.21502 8.92632 3.34118 8.90006 3.38469 9.03579C2.98444 9.15839 2.57984 9.16714 2.1796 9.1146C1.83591 9.06643 1.88811 9.19778 1.98818 9.40795C2.50153 10.5332 3.34118 11.2644 4.53757 11.5753C4.77249 11.6366 5.01177 11.6673 5.32066 11.7242C3.70227 12.9502 1.93597 13.4099 0 13.3136C0.0565564 13.3924 0.104412 13.4274 0.156618 13.4581C3.47169 15.3233 6.91729 15.5466 10.3063 13.8521C14.2435 11.8818 16.0838 8.47096 16.223 4.09685C16.2317 3.83414 16.2883 3.66337 16.5014 3.49699C17.08 3.05038 17.5891 2.52935 17.9762 1.90322C17.998 1.87695 18.0154 1.85067 17.9806 1.82878C17.9762 1.83316 17.9545 1.85943 17.9371 1.86819Z" fill="white"/>
</svg>
